<?xml version="1.0" encoding="iso-8859-1"?>
<!-- Generator: Adobe Illustrator 14.0.0, SVG Export Plug-In . SVG Version: 6.00 Build 43363)  -->
<!DOCTYPE svg PUBLIC "-//W3C//DTD SVG 1.1//EN" "http://www.w3.org/Graphics/SVG/1.1/DTD/svg11.dtd">
<svg version="1.1" id="icon-m-input-methods-backspace-layer"
	 xmlns="http://www.w3.org/2000/svg" xmlns:xlink="http://www.w3.org/1999/xlink" x="0px" y="0px" width="48px" height="48px"
	 viewBox="0 0 48 48" style="enable-background:new 0 0 48 48;" xml:space="preserve">
<g id="icon-m-input-methods-backspace">
	<rect style="fill:none;" width="48" height="48"/>
	<g>
		<polygon style="fill:#FFFFFF;" points="31.467,30 33,28.467 22.536,18 21,19.535 31.467,30 		"/>
		<polygon style="fill:#FFFFFF;" points="33,19.535 31.467,18 21,28.467 22.536,30 33,19.535 		"/>
		<path style="fill:#FFFFFF;" d="M40,12H18.68c-1.1,0-2.608,0.664-3.352,1.475l-8.723,9.051c-0.743,0.812-0.743,2.139,0,2.949
			l8.723,9.051C16.072,35.337,17.58,36,18.68,36H40c1.1,0,2-0.9,2-2V14C42,12.9,41.1,12,40,12z M39,32c0,0.55-0.45,1-1,1H19
			c-0.55,0-1.304-0.332-1.676-0.737L10,24.738c-0.372-0.406-0.372-1.07,0-1.476l7.324-7.524C17.696,15.332,18.45,15,19,15h19
			c0.55,0,1,0.451,1,1V32z"/>
	</g>
</g>
</svg>
