<?xml version="1.0" encoding="iso-8859-1"?>
<!-- Generator: Adobe Illustrator 14.0.0, SVG Export Plug-In . SVG Version: 6.00 Build 43363)  -->
<!DOCTYPE svg PUBLIC "-//W3C//DTD SVG 1.1//EN" "http://www.w3.org/Graphics/SVG/1.1/DTD/svg11.dtd">
<svg version="1.1" id="icon-m-input-methods-shift-uppercase-layer"
	 xmlns="http://www.w3.org/2000/svg" xmlns:xlink="http://www.w3.org/1999/xlink" x="0px" y="0px" width="48px" height="48px"
	 viewBox="0 0 48 48" style="enable-background:new 0 0 48 48;" xml:space="preserve">
<g id="icon-m-input-methods-shift-uppercase">
	<path style="fill:#FFFFFF;" d="M36.438,23.969l-3.646-5.016l-2.352-3.234l-3.646-5.016c-0.689-0.947-1.707-1.49-2.794-1.49
		c-1.086,0-2.105,0.543-2.794,1.491l-3.645,5.015l-2.352,3.234l-3.646,5.016c-0.767,1.054-0.915,2.23-0.408,3.227
		s1.546,1.566,2.849,1.566h0.75h0.594c0.551,0,1,0.449,1,1v2.967v3.652c0,2.207,1.794,4,4,4h7.144c2.205,0,4-1.793,4-4V33.6v-3.838
		c0-0.551,0.448-1,1-1h0.99h0.514c1.304,0,2.342-0.57,2.85-1.566S37.204,25.023,36.438,23.969z M33.995,26.762h-0.514h-0.99
		c-1.654,0-3,1.346-3,3V33.6v2.781c0,1.102-0.9,2-2,2h-7.144c-1.1,0-2-0.898-2-2v-3.652v-2.967c0-1.654-1.346-3-3-3h-0.594h-0.75
		c-1.1,0-1.471-0.727-0.824-1.617l3.646-5.015c0.647-0.89,1.706-2.346,2.352-3.235l3.646-5.015c0.323-0.444,0.75-0.667,1.176-0.667
		s0.853,0.223,1.177,0.667l3.646,5.015c0.647,0.89,1.706,2.346,2.353,3.235l3.645,5.015C35.466,26.035,35.096,26.762,33.995,26.762z
		"/>
	<path style="fill:#FFFFFF;" d="M26.651,33.324c0,1.963-0.688,2.65-2.651,2.65c-1.964,0-2.651-0.688-2.651-2.65
		c0-1.965,0.687-2.652,2.651-2.652C25.964,30.672,26.651,31.359,26.651,33.324z"/>
	<rect style="fill:none;" width="48" height="48"/>
</g>
</svg>
