<?xml version="1.0" encoding="iso-8859-1"?>
<!-- Generator: Adobe Illustrator 14.0.0, SVG Export Plug-In . SVG Version: 6.00 Build 43363)  -->
<!DOCTYPE svg PUBLIC "-//W3C//DTD SVG 1.1//EN" "http://www.w3.org/Graphics/SVG/1.1/DTD/svg11.dtd">
<svg version="1.1" id="icon-m-input-methods-shift-layer"
	 xmlns="http://www.w3.org/2000/svg" xmlns:xlink="http://www.w3.org/1999/xlink" x="0px" y="0px" width="48px" height="48px"
	 viewBox="0 0 48 48" style="enable-background:new 0 0 48 48;" xml:space="preserve">
<g id="icon-m-input-methods-shift">
	<rect style="fill:none;" width="48" height="48"/>
	<g>
		<path style="fill:#FFFFFF;" d="M27.924,37.25h-7.566c-1.574,0-2.824-0.488-3.714-1.455c-1.331-1.443-1.297-3.387-1.272-3.805
			v-6.74H9.954c-0.505,0-0.96-0.303-1.154-0.77c-0.194-0.466-0.089-1.003,0.267-1.36L23.424,8.664
			c0.233-0.236,0.551-0.369,0.882-0.37c0.293,0.005,0.65,0.13,0.885,0.364l14.557,14.455c0.359,0.356,0.467,0.895,0.274,1.363
			c-0.192,0.468-0.649,0.773-1.155,0.773H33.25v6.781c0.012,0.154,0.084,2.18-1.352,3.701C30.949,36.739,29.611,37.25,27.924,37.25
			L27.924,37.25z M12.957,22.75h3.665c0.69,0,1.25,0.56,1.25,1.25v8.031c0,0.035-0.001,0.067-0.004,0.102
			c0,0.004-0.073,1.234,0.624,1.978c0.402,0.431,1.014,0.64,1.867,0.64h7.566c0.965,0,1.686-0.242,2.145-0.721
			c0.723-0.752,0.684-1.924,0.684-1.936L30.75,24c0-0.69,0.56-1.25,1.25-1.25h3.834L24.316,11.312L12.957,22.75L12.957,22.75z"/>
	</g>
</g>
</svg>
