<?xml version="1.0" encoding="utf-8"?>
<!-- Generator: Adobe Illustrator 16.1.1, SVG Export Plug-In . SVG Version: 6.00 Build 0)  -->
<!DOCTYPE svg PUBLIC "-//W3C//DTD SVG 1.1//EN" "http://www.w3.org/Graphics/SVG/1.1/DTD/svg11.dtd">
<svg version="1.1" id="Layer_1" xmlns="http://www.w3.org/2000/svg" xmlns:xlink="http://www.w3.org/1999/xlink" x="0px" y="0px"
	 width="158.461px" height="157.595px" viewBox="0 0 158.461 157.595" enable-background="new 0 0 158.461 157.595"
	 xml:space="preserve">
<g>
	<g>
		<g>
			
				<linearGradient id="SVGID_1_" gradientUnits="userSpaceOnUse" x1="214.5381" y1="225.9937" x2="214.5381" y2="282.1846" gradientTransform="matrix(1 0 0 -1 -143.2461 379.5947)">
				<stop  offset="0" style="stop-color:#FAEC26"/>
				<stop  offset="0.2226" style="stop-color:#F9E31D"/>
				<stop  offset="0.6133" style="stop-color:#FAD01E"/>
				<stop  offset="1" style="stop-color:#FBB819"/>
			</linearGradient>
			<path fill="url(#SVGID_1_)" d="M67.424,97.999l-24.458,31.312l25.028-1.712c0,0-16.116,20.905-20.914,28.454
				c29.142-25.026,52.536-38.224,52.536-38.224l-28.31,0.283l19.605-17.003L67.424,97.999z"/>
			<path fill="#FCB71A" d="M47.08,157.083c-0.241,0-0.481-0.087-0.674-0.254c-0.385-0.334-0.47-0.901-0.195-1.328
				c3.994-6.283,15.545-21.455,19.577-26.722l-22.751,1.558c-0.431,0.027-0.79-0.188-0.979-0.544
				c-0.191-0.357-0.152-0.794,0.097-1.115l24.457-31.313c0.222-0.29,0.592-0.437,0.945-0.387l23.489,3.109
				c0.399,0.052,0.736,0.337,0.851,0.725c0.118,0.388-0.004,0.806-0.314,1.071l-17.489,15.168l25.511-0.253c0.001,0,0.007,0,0.01,0
				c0.465,0,0.872,0.312,0.993,0.763c0.122,0.454-0.081,0.931-0.49,1.161c-0.232,0.132-23.65,13.441-52.369,38.107
				C47.555,156.996,47.318,157.083,47.08,157.083z M67.994,126.567c0.374,0,0.724,0.206,0.904,0.542
				c0.192,0.359,0.156,0.793-0.091,1.114c-0.128,0.165-10.026,13.018-16.548,22.116c20.025-16.577,36.727-27.285,43.549-31.445
				l-24.492,0.243c-0.003,0-0.006,0-0.01,0c-0.43,0-0.809-0.263-0.965-0.664c-0.148-0.404-0.033-0.858,0.291-1.141l17.879-15.506
				l-20.643-2.731l-22.674,29.033l22.726-1.558C67.947,126.569,67.972,126.567,67.994,126.567z"/>
		</g>
		<path fill="#F7E88B" d="M73.84,124.705c-0.48-0.896-1.412-1.451-2.421-1.451c-0.062,0-0.124,0.005-0.187,0.006l-18.894,1.295
			l18.253-23.374l-1.975-0.26l-19.705,25.23l18.894-1.292c0.063-0.004,0.126-0.007,0.188-0.007c1.007,0,1.937,0.554,2.417,1.448
			c0.507,0.953,0.415,2.115-0.245,2.967c-0.082,0.106-4.144,5.383-8.762,11.541c1.789-1.39,3.522-2.707,5.225-3.988
			c3.826-5.071,6.897-9.059,6.965-9.151C74.252,126.815,74.35,125.654,73.84,124.705z"/>
	</g>
	<g>
		
			<linearGradient id="SVGID_2_" gradientUnits="userSpaceOnUse" x1="152.7578" y1="598.4966" x2="152.7578" y2="621.701" gradientTransform="matrix(0.9397 0.342 0.342 -0.9397 -324.7744 638.6593)">
			<stop  offset="0" style="stop-color:#E4EDF8"/>
			<stop  offset="0.1967" style="stop-color:#D9E8F3"/>
			<stop  offset="0.5435" style="stop-color:#BCDCEC"/>
			<stop  offset="0.9969" style="stop-color:#8BC8E1"/>
			<stop  offset="1" style="stop-color:#8AC8DF"/>
		</linearGradient>
		<path fill="url(#SVGID_2_)" d="M30.795,125.073c-1.081,2.973-4.368,4.504-7.336,3.423c-2.976-1.081-4.507-4.368-3.426-7.338
			c1.083-2.97,9.888-10.426,9.888-10.426S31.876,122.104,30.795,125.073z"/>
		<path fill="#8ABFE0" d="M23.225,129.13c-3.315-1.208-5.031-4.888-3.824-8.204c1.106-3.051,9.167-9.935,10.082-10.708l0.898-0.761
			l0.202,1.159c0.205,1.181,1.951,11.633,0.842,14.687C30.221,128.619,26.541,130.335,23.225,129.13z M29.449,112.028
			c-2.824,2.464-8.034,7.31-8.784,9.359c-0.953,2.617,0.401,5.522,3.019,6.477c2.618,0.951,5.524-0.401,6.475-3.018
			C30.91,122.792,30.03,115.734,29.449,112.028z"/>
		<path fill="#E9FBFF" enable-background="new    " d="M25.595,125.397c-2.271-0.825-3.441-3.341-2.617-5.615
			c0.193-0.517,0.747-1.279,1.491-2.156c-1.59,1.643-2.862,3.137-3.17,3.99c-0.828,2.27,0.349,4.79,2.617,5.612
			c2.123,0.776,4.449-0.219,5.415-2.208C28.236,125.673,26.882,125.866,25.595,125.397z"/>
	</g>
	<g>
		
			<linearGradient id="SVGID_3_" gradientUnits="userSpaceOnUse" x1="231.1299" y1="607.8208" x2="231.1299" y2="633.9255" gradientTransform="matrix(0.9397 0.342 0.342 -0.9397 -324.7744 638.6593)">
			<stop  offset="0" style="stop-color:#E4EDF8"/>
			<stop  offset="0.1967" style="stop-color:#D9E8F3"/>
			<stop  offset="0.5435" style="stop-color:#BCDCEC"/>
			<stop  offset="0.9969" style="stop-color:#8BC8E1"/>
			<stop  offset="1" style="stop-color:#8AC8DF"/>
		</linearGradient>
		<path fill="url(#SVGID_3_)" d="M108.548,142.687c-1.219,3.341-4.915,5.067-8.257,3.85c-3.348-1.215-5.067-4.914-3.85-8.255
			c1.213-3.342,11.121-11.729,11.121-11.729S109.764,139.344,108.548,142.687z"/>
		<path fill="#8ABFE0" d="M100.032,147.249c-3.729-1.359-5.662-5.497-4.302-9.229c1.249-3.433,10.316-11.175,11.344-12.045
			l1.014-0.856l0.224,1.309c0.229,1.327,2.194,13.084,0.946,16.52C107.897,146.673,103.757,148.605,100.032,147.249z
			 M107.036,128.009c-3.183,2.774-9.046,8.22-9.885,10.531c-1.072,2.944,0.451,6.215,3.396,7.284
			c2.947,1.073,6.216-0.451,7.285-3.394C108.676,140.119,107.685,132.178,107.036,128.009z"/>
		<path fill="#E9FBFF" enable-background="new    " d="M102.7,143.049c-2.556-0.931-3.874-3.763-2.948-6.314
			c0.212-0.582,0.843-1.442,1.682-2.426c-1.795,1.846-3.222,3.53-3.573,4.488c-0.927,2.553,0.395,5.384,2.946,6.316
			c2.389,0.87,5.006-0.247,6.097-2.485C105.67,143.36,104.147,143.575,102.7,143.049z"/>
	</g>
	<g>
		
			<linearGradient id="SVGID_4_" gradientUnits="userSpaceOnUse" x1="246.3633" y1="636.6489" x2="246.3633" y2="659.8569" gradientTransform="matrix(0.9397 0.342 0.342 -0.9397 -324.7744 638.6593)">
			<stop  offset="0" style="stop-color:#E4EDF8"/>
			<stop  offset="0.1967" style="stop-color:#D9E8F3"/>
			<stop  offset="0.5435" style="stop-color:#BCDCEC"/>
			<stop  offset="0.9969" style="stop-color:#8BC8E1"/>
			<stop  offset="1" style="stop-color:#8AC8DF"/>
		</linearGradient>
		<path fill="url(#SVGID_4_)" d="M131.804,121.231c-1.082,2.974-4.367,4.504-7.338,3.424c-2.973-1.085-4.507-4.371-3.421-7.338
			c1.08-2.974,9.888-10.428,9.888-10.428S132.886,118.261,131.804,121.231z"/>
		<path fill="#8ABFE0" d="M124.233,125.288c-3.315-1.208-5.03-4.887-3.823-8.202c1.111-3.052,9.17-9.935,10.083-10.708l0.901-0.761
			l0.2,1.158c0.204,1.181,1.955,11.634,0.84,14.688C131.23,124.777,127.551,126.493,124.233,125.288z M130.461,108.186
			c-2.829,2.466-8.036,7.309-8.787,9.36c-0.955,2.617,0.402,5.522,3.021,6.475c2.617,0.954,5.524-0.4,6.476-3.019
			C131.919,118.951,131.04,111.891,130.461,108.186z"/>
		<path fill="#E9FBFF" enable-background="new    " d="M126.604,121.557c-2.269-0.828-3.442-3.344-2.617-5.615
			c0.191-0.516,0.749-1.279,1.494-2.155c-1.595,1.643-2.864,3.136-3.175,3.991c-0.828,2.271,0.351,4.787,2.619,5.611
			c2.12,0.776,4.449-0.22,5.414-2.209C129.247,121.831,127.893,122.025,126.604,121.557z"/>
	</g>
</g>
<g>
	<g>
		<g>
			<g>
				<path fill="#128BC6" d="M62.348,5.877c-12.942,0-23.433,10.49-23.433,23.433c0,0.208,0.025,0.41,0.028,0.615
					c-1.214-0.192-2.444-0.322-3.717-0.322c-13.018,0-23.578,10.559-23.578,23.583c0,13.026,10.559,23.58,23.578,23.58
					c4.611,0,8.899-1.341,12.535-3.631c3.351,8.29,11.462,14.144,20.95,14.144c7.054,0,13.346-3.23,17.49-8.289
					c3.054,4.965,8.521,8.289,14.772,8.289c8.328,0,15.269-5.858,16.957-13.669c2.93,1.991,6.465,3.156,10.274,3.156
					c10.104,0,18.302-8.192,18.302-18.298c0-10.107-8.198-18.3-18.302-18.3c-1.479,0-2.911,0.195-4.288,0.528
					c-2.242-10.982-11.949-19.248-23.588-19.248c-5.556,0-10.655,1.898-14.728,5.059C84.215,14.889,74.341,5.877,62.348,5.877
					 M62.348,2.929c11.796,0,21.962,7.806,25.249,18.768c3.898-2.099,8.228-3.195,12.73-3.195c11.826,0,22.236,7.77,25.75,18.832
					c0.716-0.075,1.426-0.111,2.127-0.111c11.718,0,21.25,9.53,21.25,21.247c0,11.716-9.533,21.246-21.25,21.246
					c-2.98,0-5.89-0.615-8.573-1.8c-3.147,7.314-10.477,12.314-18.659,12.314c-5.825,0-11.227-2.445-15.036-6.685
					c-4.681,4.284-10.784,6.685-17.226,6.685c-9.356,0-17.773-5.018-22.26-13.023c-3.51,1.649-7.333,2.509-11.227,2.509
					c-14.622,0-26.522-11.901-26.522-26.53c0-14.628,11.9-26.528,26.522-26.528c0.29,0,0.576,0.004,0.876,0.017
					C37.423,13.36,48.689,2.929,62.348,2.929L62.348,2.929z"/>
				
					<linearGradient id="SVGID_5_" gradientUnits="userSpaceOnUse" x1="149.6084" y1="436.9761" x2="149.6084" y2="354.9214" gradientTransform="matrix(1 0 0 -1 -70.5313 443.0049)">
					<stop  offset="0" style="stop-color:#E4EDF8"/>
					<stop  offset="0.1967" style="stop-color:#D9E8F3"/>
					<stop  offset="0.5435" style="stop-color:#BCDCEC"/>
					<stop  offset="0.9969" style="stop-color:#8BC8E1"/>
					<stop  offset="1" style="stop-color:#8AC8DF"/>
				</linearGradient>
				<path fill="url(#SVGID_5_)" d="M128.204,37.223c-1.479,0-2.911,0.195-4.289,0.528c-2.241-10.984-11.948-19.248-23.588-19.248
					c-5.557,0-10.655,1.9-14.726,5.059C84.215,11.942,74.341,2.93,62.348,2.93c-12.942,0-23.433,10.49-23.433,23.433
					c0,0.208,0.025,0.412,0.028,0.616c-1.214-0.194-2.444-0.322-3.717-0.322c-13.016,0-23.578,10.559-23.578,23.581
					c0,13.028,10.559,23.583,23.578,23.583c4.611,0,8.901-1.345,12.535-3.633c3.351,8.292,11.462,14.145,20.95,14.145
					c7.054,0,13.349-3.232,17.49-8.29c3.054,4.967,8.521,8.29,14.772,8.29c8.328,0,15.27-5.856,16.957-13.668
					c2.932,1.99,6.465,3.157,10.274,3.157c10.104,0,18.302-8.192,18.302-18.3C146.508,45.414,138.307,37.223,128.204,37.223z"/>
				<path fill="#8ABFE0" d="M62.348,2.929c-12.942,0-23.433,10.49-23.433,23.433c0,0.208,0.025,0.411,0.028,0.616
					c-1.214-0.194-2.444-0.321-3.717-0.321c-13.018,0-23.578,10.557-23.578,23.581c0,13.026,10.559,23.584,23.578,23.584
					c4.611,0,8.899-1.345,12.535-3.633c3.351,8.289,11.462,14.143,20.95,14.143c7.054,0,13.346-3.231,17.49-8.29
					c3.054,4.967,8.521,8.29,14.772,8.29c8.328,0,15.269-5.857,16.957-13.668c2.93,1.99,6.465,3.158,10.274,3.158
					c10.104,0,18.302-8.194,18.302-18.302c0-10.105-8.198-18.298-18.302-18.298c-1.479,0-2.911,0.194-4.288,0.527
					c-2.242-10.982-11.949-19.248-23.588-19.248c-5.556,0-10.655,1.901-14.728,5.06C84.215,11.942,74.341,2.929,62.348,2.929
					 M62.348-0.018c11.796,0,21.962,7.806,25.249,18.768c3.898-2.1,8.228-3.195,12.73-3.195c11.826,0,22.236,7.769,25.75,18.833
					c0.716-0.078,1.426-0.113,2.127-0.113c11.718,0,21.25,9.529,21.25,21.245s-9.533,21.246-21.25,21.246
					c-2.98,0-5.89-0.617-8.573-1.799c-3.147,7.315-10.477,12.312-18.659,12.312c-5.825,0-11.227-2.445-15.036-6.683
					c-4.681,4.284-10.784,6.683-17.226,6.683c-9.356,0-17.773-5.016-22.26-13.021c-3.51,1.649-7.333,2.508-11.227,2.508
					c-14.622,0-26.522-11.899-26.522-26.53c0-14.626,11.9-26.529,26.522-26.529c0.29,0,0.576,0.006,0.876,0.019
					C37.423,10.413,48.689-0.018,62.348-0.018L62.348-0.018z"/>
			</g>
			<g>
				<g>
					<path fill="#E9FBFF" enable-background="new    " d="M35.224,37.169c3.528,0,6.814,0.968,9.645,2.63
						c-0.894-2.1-1.398-4.399-1.474-6.807c-2.477-1.176-5.24-1.854-8.171-1.854c-10.547,0-19.096,8.553-19.096,19.1
						c0,1.031,0.103,2.031,0.262,3.017C17.84,44.142,25.708,37.169,35.224,37.169z"/>
					<path fill="#E9FBFF" enable-background="new    " d="M62.348,13.412c9.452,0,17.271,6.919,18.725,15.966
						c0.153-0.984,0.258-1.987,0.258-3.016c0-10.483-8.498-18.98-18.981-18.98c-10.484,0-18.982,8.498-18.982,18.98
						c0,1.03,0.104,2.032,0.266,3.016C45.076,20.331,52.894,13.412,62.348,13.412z"/>
					<path fill="#E9FBFF" enable-background="new    " d="M100.327,29.107c10.766,0,19.501,8.732,19.501,19.5
						c0,0.255-0.031,0.506-0.042,0.759c2.391-1.656,5.288-2.638,8.418-2.638c7.153,0,13.121,5.069,14.515,11.81
						c0.201-0.974,0.311-1.982,0.311-3.016c0-8.187-6.637-14.823-14.823-14.823c-3.132,0-6.027,0.98-8.419,2.637
						c0.014-0.254,0.042-0.503,0.042-0.76c0-10.771-8.736-19.498-19.5-19.498c-10.771,0-19.498,8.728-19.498,19.498
						c0,1.026,0.103,2.028,0.252,3.014C82.537,36.256,90.589,29.107,100.327,29.107z"/>
				</g>
			</g>
		</g>
		<g>
			<g>
				<path fill="#128BC6" d="M67.366,45.16c-9.062,0-16.401,7.343-16.401,16.4c0,0.149,0.017,0.292,0.017,0.436
					c-0.846-0.137-1.718-0.224-2.6-0.224c-9.114,0-16.506,7.39-16.506,16.506c0,9.118,7.391,16.51,16.506,16.51
					c3.231,0,6.229-0.943,8.773-2.544c2.343,5.804,8.021,9.899,14.663,9.899c4.937,0,9.346-2.259,12.247-5.801
					c2.133,3.477,5.964,5.801,10.34,5.801c5.825,0,10.684-4.097,11.871-9.567c2.047,1.397,4.523,2.212,7.189,2.212
					c7.078,0,12.812-5.737,12.812-12.812c0-7.074-5.733-12.808-12.812-12.808c-1.034,0-2.036,0.131-3.005,0.367
					c-1.566-7.685-8.359-13.471-16.512-13.471c-3.886,0-7.454,1.328-10.305,3.541C82.67,51.468,75.763,45.16,67.366,45.16
					 M67.366,43.096c8.258,0,15.373,5.464,17.677,13.14c2.728-1.473,5.755-2.239,8.906-2.239c8.279,0,15.567,5.437,18.032,13.182
					c0.496-0.052,0.994-0.08,1.484-0.08c8.201,0,14.875,6.671,14.875,14.872c0,8.201-6.674,14.874-14.875,14.874
					c-2.09,0-4.121-0.432-5.998-1.259c-2.204,5.119-7.335,8.62-13.061,8.62c-4.077,0-7.861-1.712-10.523-4.678
					c-3.275,2.999-7.552,4.678-12.065,4.678c-6.546,0-12.439-3.511-15.579-9.115c-2.457,1.156-5.133,1.754-7.857,1.754
					c-10.237,0-18.566-8.328-18.566-18.567c0-10.239,8.329-18.571,18.566-18.571c0.202,0,0.402,0.003,0.611,0.013
					C49.918,50.399,57.804,43.096,67.366,43.096L67.366,43.096z"/>
				
					<linearGradient id="SVGID_6_" gradientUnits="userSpaceOnUse" x1="149.6074" y1="397.7397" x2="149.6074" y2="340.298" gradientTransform="matrix(1 0 0 -1 -70.5313 443.0049)">
					<stop  offset="0" style="stop-color:#E4EDF8"/>
					<stop  offset="0.1967" style="stop-color:#D9E8F3"/>
					<stop  offset="0.5435" style="stop-color:#BCDCEC"/>
					<stop  offset="0.9969" style="stop-color:#8BC8E1"/>
					<stop  offset="1" style="stop-color:#8AC8DF"/>
				</linearGradient>
				<path fill="url(#SVGID_6_)" d="M113.466,67.099c-1.036,0-2.038,0.139-3.005,0.372c-1.566-7.687-8.359-13.474-16.512-13.474
					c-3.886,0-7.457,1.332-10.308,3.542c-0.972-8.135-7.879-14.443-16.275-14.443c-9.062,0-16.401,7.342-16.401,16.403
					c0,0.146,0.017,0.285,0.017,0.432c-0.846-0.136-1.718-0.225-2.6-0.225c-9.114,0-16.506,7.393-16.506,16.508
					c0,9.116,7.391,16.508,16.506,16.508c3.231,0,6.229-0.941,8.773-2.543c2.343,5.803,8.021,9.902,14.663,9.902
					c4.937,0,9.346-2.262,12.247-5.804c2.133,3.476,5.964,5.804,10.34,5.804c5.825,0,10.684-4.101,11.871-9.567
					c2.047,1.392,4.523,2.208,7.189,2.208c7.078,0,12.812-5.735,12.812-12.811C126.275,72.835,120.542,67.099,113.466,67.099z"/>
				<path fill="#8ABFE0" d="M67.366,43.096c-9.062,0-16.401,7.342-16.401,16.403c0,0.146,0.017,0.285,0.017,0.432
					c-0.846-0.136-1.718-0.225-2.6-0.225c-9.114,0-16.506,7.393-16.506,16.508c0,9.116,7.391,16.508,16.506,16.508
					c3.231,0,6.229-0.941,8.773-2.543c2.343,5.803,8.021,9.902,14.663,9.902c4.937,0,9.346-2.262,12.247-5.804
					c2.133,3.476,5.964,5.804,10.34,5.804c5.825,0,10.684-4.101,11.871-9.567c2.047,1.392,4.523,2.208,7.189,2.208
					c7.078,0,12.812-5.735,12.812-12.811c0-7.072-5.733-12.81-12.812-12.81c-1.034,0-2.036,0.136-3.005,0.371
					C108.895,59.786,102.102,54,93.949,54c-3.886,0-7.454,1.328-10.305,3.543C82.67,49.404,75.763,43.096,67.366,43.096
					 M67.366,41.031c8.258,0,15.373,5.466,17.677,13.139c2.728-1.473,5.755-2.235,8.906-2.235c8.279,0,15.567,5.435,18.032,13.179
					c0.496-0.049,0.994-0.078,1.484-0.078c8.201,0,14.875,6.67,14.875,14.872c0,8.203-6.674,14.874-14.875,14.874
					c-2.09,0-4.121-0.43-5.998-1.26c-2.204,5.121-7.335,8.619-13.061,8.619c-4.077,0-7.861-1.71-10.523-4.676
					c-3.275,2.998-7.552,4.676-12.065,4.676c-6.546,0-12.439-3.508-15.579-9.113c-2.457,1.154-5.133,1.757-7.857,1.757
					c-10.237,0-18.566-8.331-18.566-18.572c0-10.238,8.329-18.569,18.566-18.569c0.202,0,0.402,0.004,0.611,0.01
					C49.918,48.335,57.804,41.031,67.366,41.031L67.366,41.031z"/>
			</g>
			<g>
				<g>
					<path fill="#E9FBFF" enable-background="new    " d="M48.381,67.064c2.462,0,4.766,0.676,6.749,1.841
						c-0.623-1.47-0.974-3.078-1.026-4.763c-1.739-0.823-3.673-1.3-5.722-1.3c-7.382,0-13.367,5.987-13.367,13.372
						c0,0.722,0.074,1.423,0.186,2.11C36.211,71.945,41.718,67.064,48.381,67.064z"/>
					<path fill="#E9FBFF" enable-background="new    " d="M67.366,50.434c6.618,0,12.093,4.844,13.104,11.177
						c0.107-0.688,0.186-1.39,0.186-2.109c0-7.34-5.953-13.29-13.29-13.29s-13.287,5.948-13.287,13.29
						c0,0.719,0.075,1.42,0.186,2.109C55.276,55.278,60.746,50.434,67.366,50.434z"/>
					<path fill="#E9FBFF" enable-background="new    " d="M93.949,61.421c7.541,0,13.65,6.111,13.65,13.649
						c0,0.177-0.02,0.352-0.031,0.531c1.675-1.158,3.703-1.844,5.896-1.844c5.009,0,9.185,3.546,10.162,8.266
						c0.138-0.682,0.21-1.389,0.21-2.112c0-5.73-4.645-10.375-10.372-10.375c-2.192,0-4.221,0.686-5.896,1.844
						c0.012-0.176,0.031-0.35,0.031-0.529c0-7.54-6.109-13.65-13.65-13.65c-7.535,0-13.653,6.11-13.653,13.65
						c0,0.719,0.078,1.418,0.189,2.11C81.495,66.425,87.131,61.421,93.949,61.421z"/>
				</g>
			</g>
		</g>
	</g>
</g>
</svg>
