<?xml version="1.0" encoding="utf-8"?>
<!-- Generator: Adobe Illustrator 16.1.1, SVG Export Plug-In . SVG Version: 6.00 Build 0)  -->
<!DOCTYPE svg PUBLIC "-//W3C//DTD SVG 1.1//EN" "http://www.w3.org/Graphics/SVG/1.1/DTD/svg11.dtd">
<svg version="1.1" id="Layer_1" xmlns="http://www.w3.org/2000/svg" xmlns:xlink="http://www.w3.org/1999/xlink" x="0px" y="0px"
	 width="158.461px" height="157.594px" viewBox="0 0 158.461 157.594" enable-background="new 0 0 158.461 157.594"
	 xml:space="preserve">
<g>
	
		<linearGradient id="SVGID_1_" gradientUnits="userSpaceOnUse" x1="122.3193" y1="-195.9199" x2="122.3193" y2="-159.9662" gradientTransform="matrix(1 0 0 -1 -70.6641 -44.4063)">
		<stop  offset="0" style="stop-color:#B4DCED"/>
		<stop  offset="0.3536" style="stop-color:#AAD6EA"/>
		<stop  offset="0.975" style="stop-color:#8CC9E1"/>
		<stop  offset="1" style="stop-color:#8AC8DF"/>
	</linearGradient>
	<path fill="url(#SVGID_1_)" d="M67.159,140.896l-4.09-2.364l2.893-0.952c0.708-0.229,1.091-0.997,0.861-1.7
		c-0.235-0.705-0.995-1.093-1.704-0.863l-5.18,1.711l-4.981-2.876l5.045-2.913l5.18,1.704c0.143,0.042,0.282,0.069,0.423,0.069
		c0.566,0,1.096-0.361,1.282-0.929c0.231-0.706-0.154-1.468-0.859-1.701l-2.891-0.956l4.024-2.324
		c0.792-0.456,1.063-1.465,0.606-2.256c-0.455-0.787-1.471-1.06-2.258-0.604l-4.028,2.324l0.621-2.98
		c0.153-0.729-0.314-1.441-1.045-1.596c-0.729-0.158-1.442,0.314-1.594,1.044l-1.113,5.341l-5.044,2.91v-5.822l4.065-3.634
		c0.555-0.499,0.603-1.35,0.109-1.907c-0.495-0.553-1.346-0.599-1.907-0.105l-2.268,2.029v-4.652c0-0.909-0.741-1.648-1.653-1.648
		c-0.914,0-1.652,0.739-1.652,1.648v4.652l-2.27-2.029c-0.556-0.493-1.406-0.447-1.906,0.105c-0.495,0.558-0.447,1.408,0.107,1.907
		l4.068,3.634v5.822l-5.047-2.91l-1.112-5.341c-0.153-0.729-0.859-1.202-1.595-1.044c-0.729,0.154-1.198,0.866-1.046,1.596
		l0.622,2.98l-4.028-2.324c-0.785-0.456-1.801-0.184-2.257,0.604c-0.455,0.791-0.186,1.803,0.605,2.256l4.026,2.324l-2.892,0.956
		c-0.706,0.233-1.09,0.995-0.857,1.701c0.186,0.567,0.713,0.929,1.279,0.929c0.141,0,0.28-0.027,0.424-0.069l5.179-1.704
		l5.045,2.913l-4.979,2.876l-5.181-1.711c-0.7-0.229-1.468,0.158-1.703,0.863c-0.229,0.706,0.152,1.471,0.859,1.7l2.894,0.952
		l-4.093,2.364c-0.793,0.452-1.061,1.468-0.605,2.259c0.303,0.528,0.861,0.828,1.433,0.828c0.28,0,0.564-0.073,0.826-0.225
		l4.091-2.36l-0.621,2.978c-0.152,0.729,0.314,1.445,1.044,1.596c0.094,0.021,0.186,0.033,0.279,0.033
		c0.624,0,1.184-0.439,1.318-1.077l1.11-5.338l4.98-2.873v5.749l-4.067,3.635c-0.554,0.495-0.602,1.346-0.108,1.903
		c0.267,0.3,0.64,0.45,1.009,0.45c0.319,0,0.642-0.111,0.897-0.341l2.27-2.029v4.725c0,0.915,0.739,1.657,1.654,1.657
		c0.912,0,1.651-0.742,1.651-1.657v-4.725l2.27,2.029c0.259,0.229,0.578,0.341,0.898,0.341c0.369,0,0.742-0.15,1.008-0.45
		c0.494-0.558,0.446-1.408-0.108-1.903l-4.067-3.635v-5.749l4.98,2.873l1.111,5.338c0.133,0.638,0.693,1.077,1.317,1.077
		c0.093,0,0.185-0.013,0.279-0.033c0.729-0.15,1.197-0.866,1.044-1.596l-0.622-2.978l4.093,2.36
		c0.262,0.151,0.545,0.225,0.826,0.225c0.571,0,1.127-0.296,1.434-0.828C68.223,142.363,67.952,141.348,67.159,140.896z"/>
	
		<linearGradient id="SVGID_2_" gradientUnits="userSpaceOnUse" x1="169.3281" y1="-189.9712" x2="169.3281" y2="-157.6162" gradientTransform="matrix(1 0 0 -1 -70.6641 -44.4063)">
		<stop  offset="0" style="stop-color:#B4DCED"/>
		<stop  offset="0.3536" style="stop-color:#AAD6EA"/>
		<stop  offset="0.975" style="stop-color:#8CC9E1"/>
		<stop  offset="1" style="stop-color:#8AC8DF"/>
	</linearGradient>
	<path fill="url(#SVGID_2_)" d="M112.622,136.011l-3.684-2.121l2.605-0.864c0.634-0.209,0.981-0.893,0.771-1.529
		c-0.209-0.634-0.893-0.979-1.535-0.771l-4.657,1.532l-4.483-2.583l4.541-2.623l4.66,1.532c0.128,0.044,0.257,0.063,0.383,0.063
		c0.509,0,0.983-0.324,1.151-0.83c0.21-0.644-0.138-1.323-0.773-1.537l-2.604-0.855l3.626-2.092c0.711-0.407,0.954-1.32,0.544-2.033
		c-0.409-0.709-1.321-0.952-2.032-0.544l-3.625,2.091l0.56-2.68c0.14-0.653-0.284-1.3-0.938-1.438
		c-0.66-0.141-1.301,0.286-1.438,0.946l-1.001,4.8l-4.539,2.623v-5.244l3.658-3.27c0.5-0.446,0.544-1.214,0.096-1.714
		c-0.446-0.499-1.21-0.541-1.714-0.099l-2.042,1.825v-4.183c0-0.823-0.667-1.486-1.488-1.486c-0.823,0-1.488,0.663-1.488,1.486
		v4.183l-2.045-1.825c-0.498-0.442-1.264-0.4-1.714,0.099c-0.444,0.5-0.401,1.268,0.097,1.714l3.661,3.27v5.244l-4.542-2.623l-1-4.8
		c-0.138-0.66-0.773-1.087-1.437-0.946c-0.659,0.138-1.077,0.781-0.942,1.438l0.561,2.68l-3.625-2.091
		c-0.707-0.408-1.622-0.165-2.03,0.544c-0.411,0.713-0.168,1.626,0.541,2.033l3.624,2.092l-2.604,0.855
		c-0.635,0.214-0.979,0.894-0.771,1.537c0.168,0.509,0.643,0.83,1.151,0.83c0.127,0,0.255-0.019,0.381-0.063l4.662-1.532
		l4.541,2.623l-4.483,2.583l-4.66-1.532c-0.629-0.208-1.319,0.138-1.532,0.771c-0.209,0.637,0.138,1.32,0.772,1.529l2.604,0.864
		l-3.683,2.121c-0.712,0.413-0.955,1.323-0.543,2.032c0.272,0.479,0.773,0.745,1.288,0.745c0.254,0,0.508-0.063,0.744-0.201
		l3.682-2.124l-0.56,2.683c-0.138,0.656,0.282,1.297,0.94,1.432c0.084,0.022,0.167,0.029,0.248,0.029
		c0.565,0,1.068-0.392,1.189-0.965l0.999-4.804l4.483-2.587v5.171l-3.661,3.273c-0.5,0.45-0.541,1.212-0.097,1.71
		c0.239,0.27,0.573,0.404,0.906,0.404c0.287,0,0.576-0.102,0.808-0.302l2.045-1.825v4.251c0,0.821,0.665,1.484,1.488,1.484
		c0.821,0,1.488-0.663,1.488-1.484v-4.251l2.042,1.825c0.231,0.2,0.521,0.302,0.81,0.302c0.333,0,0.666-0.139,0.904-0.404
		c0.448-0.498,0.402-1.26-0.096-1.71l-3.658-3.273v-5.171l4.478,2.587l1.006,4.804c0.115,0.573,0.621,0.965,1.186,0.965
		c0.083,0,0.165-0.007,0.248-0.029c0.655-0.135,1.079-0.775,0.94-1.432l-0.562-2.683l3.687,2.124
		c0.234,0.138,0.488,0.201,0.743,0.201c0.514,0,1.015-0.267,1.287-0.745C113.576,137.334,113.333,136.424,112.622,136.011z"/>
	
		<linearGradient id="SVGID_3_" gradientUnits="userSpaceOnUse" x1="208.1484" y1="-171.1714" x2="208.1484" y2="-142.0502" gradientTransform="matrix(1 0 0 -1 -70.6641 -44.4063)">
		<stop  offset="0" style="stop-color:#B4DCED"/>
		<stop  offset="0.3536" style="stop-color:#AAD6EA"/>
		<stop  offset="0.975" style="stop-color:#8CC9E1"/>
		<stop  offset="1" style="stop-color:#8AC8DF"/>
	</linearGradient>
	<path fill="url(#SVGID_3_)" d="M150.044,118.17l-3.314-1.915l2.344-0.771c0.573-0.19,0.884-0.808,0.695-1.383
		c-0.189-0.571-0.805-0.883-1.381-0.692l-4.196,1.382l-4.031-2.334l4.086-2.354l4.197,1.382c0.112,0.033,0.225,0.053,0.344,0.053
		c0.459,0,0.885-0.291,1.035-0.752c0.188-0.571-0.123-1.188-0.696-1.375l-2.343-0.771l3.261-1.885
		c0.644-0.371,0.862-1.188,0.49-1.828c-0.369-0.641-1.191-0.86-1.828-0.49l-3.261,1.882l0.501-2.417
		c0.126-0.584-0.253-1.165-0.845-1.29c-0.59-0.127-1.169,0.256-1.291,0.848l-0.899,4.323l-4.089,2.361v-4.722l3.294-2.941
		c0.45-0.397,0.488-1.09,0.087-1.544c-0.399-0.442-1.088-0.481-1.544-0.085l-1.837,1.638v-3.762c0-0.738-0.6-1.339-1.339-1.339
		c-0.741,0-1.339,0.601-1.339,1.339v3.762l-1.837-1.638c-0.449-0.4-1.14-0.357-1.544,0.085c-0.401,0.454-0.362,1.143,0.088,1.544
		l3.293,2.941v4.722l-4.087-2.361l-0.9-4.323c-0.123-0.588-0.698-0.975-1.294-0.848c-0.59,0.125-0.968,0.706-0.845,1.29l0.506,2.417
		l-3.264-1.882c-0.639-0.37-1.459-0.15-1.83,0.49c-0.368,0.64-0.151,1.457,0.492,1.828l3.259,1.885l-2.341,0.771
		c-0.571,0.188-0.884,0.804-0.697,1.375c0.151,0.461,0.578,0.752,1.038,0.752c0.115,0,0.228-0.02,0.343-0.053l4.194-1.382
		l4.088,2.354l-4.035,2.334l-4.192-1.382c-0.568-0.19-1.19,0.121-1.381,0.692c-0.188,0.575,0.124,1.192,0.697,1.383l2.342,0.771
		l-3.314,1.915c-0.644,0.364-0.86,1.185-0.49,1.828c0.247,0.427,0.697,0.667,1.16,0.667c0.227,0,0.459-0.056,0.668-0.182l3.315-1.91
		l-0.504,2.413c-0.124,0.591,0.257,1.166,0.846,1.29c0.077,0.017,0.149,0.023,0.222,0.023c0.51,0,0.96-0.352,1.07-0.867l0.9-4.323
		l4.034-2.331v4.659l-3.294,2.94c-0.451,0.401-0.49,1.091-0.089,1.543c0.215,0.243,0.517,0.365,0.815,0.365
		c0.258,0,0.519-0.092,0.729-0.275l1.839-1.646v3.828c0,0.742,0.596,1.337,1.339,1.337c0.736,0,1.337-0.595,1.337-1.337v-3.828
		l1.839,1.646c0.209,0.184,0.468,0.275,0.728,0.275c0.3,0,0.599-0.122,0.814-0.365c0.401-0.452,0.364-1.139-0.086-1.543l-3.295-2.94
		v-4.659l4.034,2.331l0.898,4.323c0.107,0.516,0.563,0.867,1.069,0.867c0.075,0,0.147-0.007,0.222-0.023
		c0.592-0.124,0.97-0.699,0.849-1.29l-0.506-2.413l3.315,1.91c0.212,0.126,0.44,0.182,0.665,0.182c0.466,0,0.915-0.24,1.163-0.667
		C150.904,119.354,150.684,118.534,150.044,118.17z"/>
	
		<linearGradient id="SVGID_4_" gradientUnits="userSpaceOnUse" x1="84.8965" y1="-165.2251" x2="84.8965" y2="-136.1022" gradientTransform="matrix(1 0 0 -1 -70.6641 -44.4063)">
		<stop  offset="0" style="stop-color:#B4DCED"/>
		<stop  offset="0.3536" style="stop-color:#AAD6EA"/>
		<stop  offset="0.975" style="stop-color:#8CC9E1"/>
		<stop  offset="1" style="stop-color:#8AC8DF"/>
	</linearGradient>
	<path fill="url(#SVGID_4_)" d="M26.791,112.221l-3.314-1.915l2.343-0.771c0.574-0.184,0.885-0.808,0.697-1.383
		c-0.188-0.568-0.807-0.88-1.382-0.692l-4.194,1.383l-4.033-2.328l4.086-2.361l4.195,1.386c0.115,0.033,0.229,0.057,0.345,0.057
		c0.46,0,0.883-0.296,1.034-0.756c0.189-0.574-0.122-1.188-0.695-1.382l-2.343-0.772l3.262-1.881
		c0.642-0.364,0.86-1.182,0.491-1.825c-0.371-0.64-1.19-0.86-1.829-0.486l-3.262,1.878l0.502-2.412
		c0.125-0.592-0.256-1.172-0.844-1.294c-0.592-0.132-1.17,0.253-1.29,0.844l-0.902,4.327l-4.088,2.36v-4.718l3.295-2.941
		c0.447-0.401,0.485-1.094,0.087-1.543c-0.401-0.45-1.091-0.486-1.541-0.09l-1.841,1.646v-3.77c0-0.743-0.6-1.34-1.338-1.34
		c-0.742,0-1.339,0.597-1.339,1.34v3.77l-1.841-1.646c-0.448-0.399-1.138-0.36-1.542,0.09c-0.398,0.449-0.364,1.139,0.087,1.543
		l3.296,2.941v4.718l-4.089-2.36l-0.899-4.327c-0.124-0.591-0.699-0.976-1.293-0.844c-0.588,0.122-0.971,0.702-0.847,1.294
		l0.507,2.412l-3.268-1.878c-0.636-0.374-1.456-0.153-1.825,0.486c-0.367,0.644-0.152,1.461,0.491,1.825l3.261,1.881l-2.342,0.772
		c-0.576,0.193-0.885,0.808-0.699,1.382c0.155,0.46,0.582,0.756,1.038,0.756c0.115,0,0.229-0.023,0.345-0.057l4.196-1.386
		l4.084,2.361l-4.032,2.328l-4.193-1.383c-0.57-0.188-1.192,0.124-1.383,0.692c-0.188,0.575,0.124,1.199,0.699,1.383l2.34,0.771
		l-3.313,1.915c-0.644,0.371-0.858,1.188-0.491,1.828c0.25,0.431,0.697,0.67,1.161,0.67c0.227,0,0.458-0.063,0.669-0.18l3.315-1.912
		l-0.504,2.414c-0.127,0.584,0.256,1.165,0.844,1.293c0.076,0.017,0.153,0.023,0.227,0.023c0.505,0,0.959-0.354,1.066-0.873
		l0.901-4.325l4.032-2.323v4.655l-3.295,2.944c-0.452,0.397-0.486,1.094-0.088,1.537c0.218,0.243,0.518,0.364,0.816,0.364
		c0.261,0,0.521-0.092,0.726-0.275l1.841-1.639v3.824c0,0.739,0.599,1.34,1.339,1.34s1.338-0.601,1.338-1.34v-3.824l1.841,1.639
		c0.206,0.184,0.464,0.275,0.727,0.275c0.298,0,0.599-0.121,0.814-0.364c0.4-0.443,0.362-1.14-0.087-1.537l-3.295-2.944v-4.655
		l4.033,2.323l0.899,4.325c0.107,0.519,0.563,0.873,1.069,0.873c0.072,0,0.149-0.007,0.224-0.023
		c0.591-0.128,0.972-0.709,0.847-1.293l-0.505-2.414l3.315,1.912c0.211,0.117,0.443,0.18,0.668,0.18c0.461,0,0.91-0.239,1.16-0.67
		C27.647,113.409,27.433,112.592,26.791,112.221z"/>
</g>
<g>
	<g>
		<g>
			<path fill="#128BC6" d="M65.224,7.209c-13.625,0-24.667,11.041-24.667,24.667c0,0.22,0.025,0.429,0.03,0.646
				c-1.275-0.201-2.574-0.339-3.912-0.339c-13.703,0-24.82,11.113-24.82,24.824c0,13.71,11.115,24.824,24.82,24.824
				c4.854,0,9.369-1.416,13.193-3.825c3.528,8.727,12.063,14.889,22.055,14.889c7.424,0,14.049-3.401,18.41-8.727
				c3.213,5.227,8.97,8.727,15.552,8.727c8.763,0,16.071-6.165,17.848-14.39c3.085,2.098,6.807,3.326,10.816,3.326
				c10.636,0,19.268-8.625,19.268-19.263c0-10.641-8.632-19.266-19.268-19.266c-1.558,0-3.064,0.207-4.516,0.555
				c-2.357-11.56-12.574-20.261-24.827-20.261c-5.848,0-11.219,2-15.502,5.325C88.24,16.697,77.846,7.209,65.224,7.209
				 M65.224,4.106c12.417,0,23.118,8.215,26.578,19.755c4.104-2.21,8.661-3.366,13.401-3.366c12.448,0,23.407,8.179,27.104,19.827
				c0.755-0.082,1.502-0.117,2.238-0.117c12.333,0,22.368,10.033,22.368,22.364c0,12.335-10.035,22.364-22.368,22.364
				c-3.138,0-6.197-0.646-9.022-1.895c-3.315,7.7-11.029,12.962-19.642,12.962c-6.131,0-11.819-2.573-15.832-7.035
				c-4.927,4.508-11.35,7.035-18.131,7.035c-9.85,0-18.706-5.282-23.43-13.707c-3.695,1.733-7.72,2.64-11.815,2.64
				c-15.396,0-27.923-12.528-27.923-27.926c0-15.398,12.526-27.927,27.923-27.927c0.303,0,0.604,0.007,0.92,0.02
				C38.986,15.085,50.847,4.106,65.224,4.106L65.224,4.106z"/>
			
				<linearGradient id="SVGID_5_" gradientUnits="userSpaceOnUse" x1="153.3652" y1="11.6396" x2="153.3652" y2="-74.7356" gradientTransform="matrix(1 0 0 -1 -70.5313 19.0039)">
				<stop  offset="0" style="stop-color:#E4EDF8"/>
				<stop  offset="0.1967" style="stop-color:#D9E8F3"/>
				<stop  offset="0.5435" style="stop-color:#BCDCEC"/>
				<stop  offset="0.9969" style="stop-color:#8BC8E1"/>
				<stop  offset="1" style="stop-color:#8AC8DF"/>
			</linearGradient>
			<path fill="url(#SVGID_5_)" d="M134.546,40.205c-1.558,0-3.065,0.202-4.515,0.555c-2.356-11.564-12.576-20.265-24.828-20.265
				c-5.848,0-11.219,2-15.502,5.326C88.24,13.592,77.846,4.103,65.224,4.103c-13.625,0-24.667,11.042-24.667,24.666
				c0,0.221,0.025,0.434,0.03,0.647c-1.275-0.204-2.574-0.338-3.912-0.338c-13.703,0-24.82,11.116-24.82,24.823
				c0,13.711,11.115,24.824,24.82,24.824c4.854,0,9.369-1.415,13.193-3.821c3.528,8.724,12.063,14.886,22.055,14.886
				c7.424,0,14.049-3.401,18.41-8.724c3.213,5.227,8.97,8.724,15.552,8.724c8.763,0,16.071-6.162,17.848-14.388
				c3.085,2.096,6.807,3.323,10.816,3.323c10.636,0,19.268-8.625,19.268-19.262C153.816,48.823,145.183,40.205,134.546,40.205z"/>
			<path fill="#8ABFE0" d="M65.224,4.106c-13.625,0-24.667,11.041-24.667,24.662c0,0.225,0.025,0.434,0.03,0.651
				c-1.275-0.204-2.574-0.339-3.912-0.339c-13.703,0-24.82,11.113-24.82,24.82c0,13.714,11.115,24.828,24.82,24.828
				c4.854,0,9.369-1.419,13.193-3.825c3.528,8.727,12.063,14.889,22.055,14.889c7.424,0,14.049-3.401,18.41-8.727
				c3.213,5.227,8.97,8.727,15.552,8.727c8.763,0,16.071-6.165,17.848-14.391c3.085,2.099,6.807,3.327,10.816,3.327
				c10.636,0,19.268-8.625,19.268-19.266c0-10.638-8.632-19.263-19.268-19.263c-1.558,0-3.064,0.203-4.516,0.555
				c-2.357-11.561-12.574-20.264-24.827-20.264c-5.848,0-11.219,2.003-15.502,5.329C88.24,13.592,77.846,4.106,65.224,4.106
				 M65.224,1c12.417,0,23.118,8.219,26.578,19.759c4.104-2.213,8.661-3.365,13.401-3.365c12.448,0,23.407,8.178,27.104,19.823
				c0.755-0.079,1.502-0.118,2.238-0.118c12.333,0,22.368,10.033,22.368,22.368c0,12.331-10.035,22.365-22.368,22.365
				c-3.138,0-6.197-0.65-9.022-1.896c-3.315,7.7-11.029,12.959-19.642,12.959c-6.131,0-11.819-2.573-15.832-7.032
				c-4.927,4.508-11.35,7.032-18.131,7.032c-9.85,0-18.706-5.279-23.43-13.704c-3.695,1.733-7.72,2.641-11.815,2.641
				c-15.396,0-27.923-12.529-27.923-27.931c0-15.394,12.526-27.923,27.923-27.923c0.303,0,0.604,0.007,0.92,0.02
				C38.986,11.982,50.847,1,65.224,1L65.224,1z"/>
		</g>
		<g>
			<g>
				<path fill="#E9FBFF" enable-background="new    " d="M36.674,40.146c3.708,0,7.169,1.018,10.15,2.771
					c-0.941-2.213-1.474-4.633-1.553-7.167c-2.606-1.237-5.516-1.95-8.598-1.95c-11.106,0-20.104,9.003-20.104,20.103
					c0,1.087,0.108,2.141,0.273,3.176C18.369,47.486,26.654,40.146,36.674,40.146z"/>
				<path fill="#E9FBFF" enable-background="new    " d="M65.224,15.138c9.949,0,18.178,7.285,19.707,16.81
					c0.164-1.037,0.275-2.092,0.275-3.175c0-11.034-8.948-19.98-19.98-19.98c-11.04,0-19.983,8.946-19.983,19.98
					c0,1.083,0.109,2.138,0.281,3.175C47.042,22.423,55.272,15.138,65.224,15.138z"/>
				<path fill="#E9FBFF" enable-background="new    " d="M105.203,31.661c11.333,0,20.525,9.19,20.525,20.523
					c0,0.27-0.03,0.532-0.042,0.801c2.516-1.743,5.564-2.777,8.859-2.777c7.528,0,13.813,5.335,15.279,12.434
					c0.212-1.028,0.327-2.088,0.327-3.175c0-8.618-6.985-15.605-15.604-15.605c-3.295,0-6.344,1.034-8.86,2.774
					c0.014-0.266,0.043-0.528,0.043-0.798c0-11.336-9.194-20.525-20.526-20.525c-11.34,0-20.525,9.189-20.525,20.525
					c0,1.08,0.107,2.135,0.266,3.172C86.477,39.187,94.948,31.661,105.203,31.661z"/>
			</g>
		</g>
	</g>
	<g>
		<g>
			<path fill="#128BC6" d="M70.508,48.557c-9.539,0-17.266,7.729-17.266,17.267c0,0.154,0.018,0.301,0.018,0.456
				c-0.89-0.145-1.808-0.236-2.736-0.236c-9.596,0-17.379,7.781-17.379,17.377c0,9.598,7.781,17.378,17.379,17.378
				c3.399,0,6.554-0.991,9.235-2.679c2.466,6.109,8.44,10.424,15.435,10.424c5.195,0,9.836-2.381,12.889-6.109
				c2.249,3.66,6.278,6.109,10.886,6.109c6.131,0,11.246-4.316,12.496-10.072c2.156,1.468,4.766,2.327,7.568,2.327
				c7.45,0,13.486-6.038,13.486-13.483c0-7.449-6.036-13.487-13.486-13.487c-1.088,0-2.144,0.145-3.163,0.392
				c-1.648-8.095-8.799-14.181-17.379-14.181c-4.093,0-7.851,1.398-10.849,3.727C86.614,55.198,79.345,48.557,70.508,48.557
				 M70.508,46.386c8.69,0,16.181,5.753,18.604,13.833c2.873-1.55,6.063-2.357,9.379-2.357c8.711,0,16.386,5.722,18.979,13.874
				c0.522-0.053,1.048-0.082,1.564-0.082c8.63,0,15.654,7.023,15.654,15.655c0,8.634-7.024,15.656-15.654,15.656
				c-2.201,0-4.341-0.453-6.315-1.326c-2.321,5.391-7.722,9.075-13.751,9.075c-4.29,0-8.271-1.803-11.078-4.926
				c-3.446,3.155-7.946,4.926-12.696,4.926c-6.891,0-13.096-3.697-16.399-9.595c-2.588,1.216-5.404,1.846-8.271,1.846
				c-10.777,0-19.546-8.767-19.546-19.545s8.769-19.548,19.546-19.548c0.21,0,0.424,0.004,0.64,0.014
				C52.139,54.072,60.439,46.386,70.508,46.386L70.508,46.386z"/>
			
				<linearGradient id="SVGID_6_" gradientUnits="userSpaceOnUse" x1="153.3613" y1="-29.6641" x2="153.3613" y2="-90.1303" gradientTransform="matrix(1 0 0 -1 -70.5313 19.0039)">
				<stop  offset="0" style="stop-color:#E4EDF8"/>
				<stop  offset="0.1967" style="stop-color:#D9E8F3"/>
				<stop  offset="0.5435" style="stop-color:#BCDCEC"/>
				<stop  offset="0.9969" style="stop-color:#8BC8E1"/>
				<stop  offset="1" style="stop-color:#8AC8DF"/>
			</linearGradient>
			<path fill="url(#SVGID_6_)" d="M119.032,71.653c-1.09,0-2.145,0.145-3.165,0.392c-1.647-8.09-8.799-14.184-17.379-14.184
				c-4.093,0-7.849,1.401-10.849,3.729c-1.025-8.563-8.297-15.205-17.132-15.205c-9.539,0-17.266,7.729-17.266,17.267
				c0,0.155,0.018,0.303,0.018,0.453c-0.89-0.142-1.808-0.233-2.736-0.233c-9.596,0-17.379,7.781-17.379,17.375
				c0,9.597,7.781,17.377,17.379,17.377c3.399,0,6.554-0.99,9.235-2.675c2.466,6.106,8.44,10.424,15.435,10.424
				c5.195,0,9.836-2.383,12.889-6.113c2.249,3.661,6.278,6.113,10.886,6.113c6.131,0,11.246-4.317,12.496-10.072
				c2.156,1.468,4.766,2.323,7.568,2.323c7.45,0,13.486-6.036,13.486-13.482C132.517,77.691,126.48,71.653,119.032,71.653z"/>
			<path fill="#8ABFE0" d="M70.508,46.386c-9.539,0-17.266,7.729-17.266,17.267c0,0.155,0.018,0.303,0.018,0.453
				c-0.89-0.142-1.808-0.233-2.736-0.233c-9.596,0-17.379,7.781-17.379,17.375c0,9.597,7.781,17.377,17.379,17.377
				c3.399,0,6.554-0.99,9.235-2.675c2.466,6.106,8.44,10.424,15.435,10.424c5.195,0,9.836-2.383,12.889-6.113
				c2.249,3.661,6.278,6.113,10.886,6.113c6.131,0,11.246-4.317,12.496-10.072c2.156,1.468,4.766,2.323,7.568,2.323
				c7.45,0,13.486-6.036,13.486-13.482s-6.036-13.484-13.486-13.484c-1.088,0-2.144,0.145-3.163,0.388
				c-1.648-8.09-8.799-14.181-17.379-14.181c-4.093,0-7.851,1.398-10.849,3.73C86.614,53.028,79.345,46.386,70.508,46.386
				 M70.508,44.214c8.69,0,16.181,5.751,18.604,13.831c2.873-1.549,6.063-2.354,9.379-2.354c8.711,0,16.386,5.722,18.979,13.87
				c0.522-0.051,1.048-0.081,1.564-0.081c8.63,0,15.654,7.022,15.654,15.657c0,8.634-7.024,15.657-15.654,15.657
				c-2.201,0-4.341-0.456-6.315-1.329c-2.321,5.391-7.722,9.074-13.751,9.074c-4.29,0-8.271-1.803-11.078-4.925
				c-3.446,3.158-7.946,4.925-12.696,4.925c-6.891,0-13.096-3.694-16.399-9.593c-2.588,1.214-5.404,1.848-8.271,1.848
				c-10.777,0-19.546-8.769-19.546-19.548c0-10.778,8.769-19.548,19.546-19.548c0.21,0,0.424,0.003,0.64,0.01
				C52.139,51.898,60.439,44.214,70.508,44.214L70.508,44.214z"/>
		</g>
		<g>
			<g>
				<path fill="#E9FBFF" enable-background="new    " d="M50.522,71.614c2.592,0,5.014,0.716,7.101,1.94
					c-0.653-1.546-1.022-3.24-1.076-5.014c-1.831-0.866-3.866-1.369-6.023-1.369c-7.771,0-14.075,6.304-14.075,14.075
					c0,0.762,0.081,1.501,0.195,2.223C37.709,76.756,43.509,71.614,50.522,71.614z"/>
				<path fill="#E9FBFF" enable-background="new    " d="M70.508,54.109c6.964,0,12.727,5.098,13.793,11.767
					c0.114-0.727,0.192-1.465,0.192-2.224c0-7.725-6.266-13.985-13.985-13.985c-7.728,0-13.99,6.257-13.99,13.985
					c0,0.759,0.083,1.497,0.197,2.224C57.781,59.207,63.537,54.109,70.508,54.109z"/>
				<path fill="#E9FBFF" enable-background="new    " d="M98.488,65.675c7.939,0,14.367,6.432,14.367,14.367
					c0,0.188-0.018,0.371-0.029,0.559c1.762-1.218,3.896-1.94,6.203-1.94c5.272,0,9.669,3.736,10.696,8.7
					c0.148-0.716,0.224-1.461,0.224-2.223c0-6.031-4.891-10.919-10.92-10.919c-2.307,0-4.441,0.721-6.203,1.939
					c0.012-0.188,0.029-0.371,0.029-0.559c0-7.935-6.428-14.367-14.367-14.367c-7.932,0-14.37,6.433-14.37,14.367
					c0,0.756,0.079,1.495,0.195,2.22C85.381,70.944,91.313,65.675,98.488,65.675z"/>
			</g>
		</g>
	</g>
</g>
</svg>
