<?xml version="1.0" encoding="utf-8"?>
<!-- Generator: Adobe Illustrator 16.1.1, SVG Export Plug-In . SVG Version: 6.00 Build 0)  -->
<!DOCTYPE svg PUBLIC "-//W3C//DTD SVG 1.1//EN" "http://www.w3.org/Graphics/SVG/1.1/DTD/svg11.dtd">
<svg version="1.1" id="Layer_1" xmlns="http://www.w3.org/2000/svg" xmlns:xlink="http://www.w3.org/1999/xlink" x="0px" y="0px"
	 width="158.461px" height="157.595px" viewBox="0 0 158.461 157.595" enable-background="new 0 0 158.461 157.595"
	 xml:space="preserve">
<g>
	<polygon fill="#FBE54B" points="79.23,128.471 94.143,149.715 99.111,124.248 121.373,137.589 115.559,112.297 141.329,115.432 
		125.725,94.687 150.535,87.075 127.85,74.473 147.418,57.426 121.566,55.141 132.516,31.603 107.963,40.034 108.394,14.081 
		89.4,31.764 79.23,7.881 69.07,31.764 50.068,14.081 50.494,40.034 25.947,31.603 36.893,55.141 11.038,57.426 30.611,74.473 
		7.922,87.075 32.738,94.687 17.137,115.432 42.906,112.297 37.082,137.589 59.348,124.248 64.327,149.715 	"/>
	<polygon fill="#FCB71A" points="79.23,23.608 95.797,0 101.326,28.305 126.057,13.474 119.594,41.577 148.228,38.09 
		130.891,61.142 158.461,69.6 133.256,83.6 154.994,102.542 126.275,105.083 138.436,131.233 111.152,121.87 111.637,150.706 
		90.522,131.057 79.23,157.594 67.939,131.057 46.83,150.706 47.303,121.87 20.029,131.233 32.188,105.083 3.461,102.542 
		25.214,83.6 0,69.6 27.578,61.142 10.237,38.09 38.869,41.577 32.401,13.474 57.141,28.305 62.672,0 	"/>
	<circle fill="#FBE54B" cx="79.232" cy="78.797" r="52.37"/>
	<g>
		<circle fill="#F6DA6B" cx="79.229" cy="78.797" r="46.188"/>
		<path fill="#FCB71A" d="M79.23,127.04c-26.602,0-48.242-21.643-48.242-48.242c0-26.602,21.641-48.244,48.242-48.244
			s48.242,21.643,48.242,48.244C127.473,105.397,105.832,127.04,79.23,127.04z M79.23,34.662c-24.338,0-44.135,19.8-44.135,44.136
			s19.799,44.136,44.135,44.136c24.337,0,44.135-19.8,44.135-44.136S103.566,34.662,79.23,34.662z"/>
	</g>
	<path fill="#F7E88B" d="M79.006,101.685c9.56,0,18.883-3.939,25.783-10.897c9.037-9.115,12.294-23.008,4.954-34.238
		c-6.911-10.579-18.542-17.033-30.737-17.033c-12.422,0-24.613,6.787-31.287,17.903c-6.139,10.214-4.123,22.142,3.405,31.066
		C58.158,96.829,68.414,101.685,79.006,101.685z"/>
</g>
</svg>
