<?xml version="1.0" encoding="utf-8"?>
<!-- Generator: Adobe Illustrator 16.1.1, SVG Export Plug-In . SVG Version: 6.00 Build 0)  -->
<!DOCTYPE svg PUBLIC "-//W3C//DTD SVG 1.1//EN" "http://www.w3.org/Graphics/SVG/1.1/DTD/svg11.dtd">
<svg version="1.1" id="Layer_1" xmlns="http://www.w3.org/2000/svg" xmlns:xlink="http://www.w3.org/1999/xlink" x="0px" y="0px"
	 width="158.461px" height="157.594px" viewBox="0 0 158.461 157.594" enable-background="new 0 0 158.461 157.594"
	 xml:space="preserve">
<g>
	<g>
		<polygon fill="#FBE54B" points="107.409,78.485 116.179,90.983 119.104,76.001 132.198,83.849 128.776,68.973 143.931,70.819 
			134.753,58.617 149.351,54.14 136.004,46.725 147.517,36.7 132.311,35.354 138.749,21.511 124.308,26.47 124.562,11.206 
			113.39,21.604 107.409,7.557 101.431,21.604 90.256,11.206 90.507,26.47 76.07,21.511 82.506,35.354 67.299,36.7 78.812,46.725 
			65.469,54.14 80.062,58.617 70.886,70.819 86.042,68.973 82.618,83.849 95.714,76.001 98.64,90.983 		"/>
		<polygon fill="#FCB71A" points="107.409,16.807 117.153,2.923 120.404,19.569 134.952,10.847 131.149,27.377 147.989,25.326 
			137.797,38.886 154.009,43.86 139.185,52.095 151.972,63.234 135.08,64.732 142.231,80.11 126.185,74.604 126.467,91.564 
			114.05,80.007 107.409,95.616 100.768,80.007 88.352,91.564 88.63,74.604 72.588,80.11 79.739,64.732 62.845,63.234 
			75.637,52.095 60.807,43.86 77.03,38.886 66.826,25.326 83.669,27.377 79.864,10.847 94.414,19.569 97.667,2.923 		"/>
		<circle fill="#FBE54B" cx="107.409" cy="49.267" r="30.804"/>
		<g>
			<circle fill="#F6DA6B" cx="107.409" cy="49.268" r="27.169"/>
			<path fill="#FCB71A" d="M107.409,77.64c-15.646,0-28.375-12.724-28.375-28.373c0-15.644,12.729-28.37,28.375-28.37
				c15.644,0,28.376,12.727,28.376,28.37C135.785,64.916,123.054,77.64,107.409,77.64z M107.409,23.31
				c-14.316,0-25.96,11.647-25.96,25.957c0,14.319,11.646,25.963,25.96,25.963c14.315,0,25.958-11.646,25.958-25.963
				C133.369,34.955,121.725,23.31,107.409,23.31z"/>
		</g>
		<path fill="#F7E88B" d="M107.277,62.731c5.622,0,11.105-2.323,15.166-6.411c5.314-5.363,7.229-13.53,2.913-20.137
			c-4.064-6.226-10.906-10.023-18.079-10.023c-7.307,0-14.478,3.995-18.404,10.533c-3.607,6.007-2.421,13.023,2.004,18.271
			C95.015,59.875,101.047,62.731,107.277,62.731z"/>
	</g>
	<g>
		<g>
			<path fill="#128BC6" d="M60.89,35.001c11.25,0,20.514,8.454,21.814,19.358c3.822-2.967,8.606-4.749,13.818-4.749
				c10.919,0,20.029,7.758,22.128,18.06c1.293-0.315,2.639-0.493,4.023-0.493c9.487,0,17.175,7.685,17.175,17.167
				c0,9.481-7.688,17.17-17.175,17.17c-3.57,0-6.888-1.095-9.637-2.963c-1.585,7.333-8.099,12.824-15.906,12.824
				c-5.872,0-11-3.12-13.865-7.778c-3.888,4.752-9.792,7.778-16.408,7.778c-8.902,0-16.512-5.491-19.654-13.271
				c-3.41,2.149-7.434,3.407-11.761,3.407c-12.216,0-22.123-9.906-22.123-22.124c0-12.215,9.907-22.128,22.123-22.128
				c1.192,0,2.35,0.123,3.49,0.303c-0.006-0.189-0.029-0.379-0.029-0.575C38.904,44.844,48.745,35.001,60.89,35.001 M60.89,32.233
				c-12.813,0-23.384,9.787-24.629,22.279c-0.279-0.011-0.549-0.017-0.818-0.017c-13.722,0-24.889,11.165-24.889,24.891
				c0,13.725,11.167,24.893,24.889,24.893c3.651,0,7.239-0.807,10.528-2.354c4.208,7.511,12.11,12.215,20.887,12.215
				c6.045,0,11.772-2.249,16.163-6.267c3.575,3.972,8.642,6.267,14.11,6.267c7.673,0,14.548-4.688,17.505-11.551
				c2.517,1.113,5.244,1.69,8.038,1.69c10.996,0,19.939-8.944,19.939-19.937c0-10.993-8.943-19.934-19.939-19.934
				c-0.654,0-1.32,0.035-1.988,0.107c-3.302-10.384-13.07-17.669-24.163-17.669c-4.225,0-8.285,1.026-11.944,3.001
				C81.494,39.557,71.96,32.233,60.89,32.233L60.89,32.233z"/>
			
				<linearGradient id="SVGID_1_" gradientUnits="userSpaceOnUse" x1="-133.5991" y1="-24.915" x2="-133.5991" y2="-101.9027" gradientTransform="matrix(1 0 0 -1 210.1836 10.2266)">
				<stop  offset="0" style="stop-color:#E4EDF8"/>
				<stop  offset="0.1967" style="stop-color:#D9E8F3"/>
				<stop  offset="0.5435" style="stop-color:#BCDCEC"/>
				<stop  offset="0.9969" style="stop-color:#8BC8E1"/>
				<stop  offset="1" style="stop-color:#8AC8DF"/>
			</linearGradient>
			<path fill="url(#SVGID_1_)" d="M122.674,64.409c-1.385,0-2.732,0.183-4.023,0.492c-2.099-10.302-11.207-18.057-22.128-18.057
				c-5.213,0-9.996,1.783-13.818,4.743C81.405,40.688,72.141,32.231,60.89,32.231c-12.145,0-21.986,9.848-21.986,21.987
				c0,0.197,0.024,0.384,0.029,0.578c-1.141-0.177-2.298-0.304-3.49-0.304c-12.216,0-22.123,9.91-22.123,22.126
				c0,12.22,9.907,22.129,22.123,22.129c4.327,0,8.351-1.262,11.761-3.41c3.142,7.779,10.752,13.27,19.654,13.27
				c6.615,0,12.52-3.03,16.408-7.778c2.865,4.659,7.993,7.778,13.865,7.778c7.808,0,14.32-5.493,15.906-12.822
				c2.748,1.87,6.066,2.963,9.637,2.963c9.487,0,17.175-7.687,17.175-17.171C139.849,72.095,132.162,64.409,122.674,64.409z"/>
			<path fill="#8ABFE0" d="M60.89,32.233c11.25,0,20.514,8.456,21.814,19.357c3.822-2.96,8.606-4.743,13.818-4.743
				c10.919,0,20.029,7.752,22.128,18.054c1.293-0.31,2.639-0.492,4.023-0.492c9.487,0,17.175,7.687,17.175,17.17
				s-7.688,17.171-17.175,17.171c-3.57,0-6.888-1.094-9.637-2.965c-1.585,7.332-8.099,12.824-15.906,12.824
				c-5.872,0-11-3.119-13.865-7.777c-3.888,4.747-9.792,7.777-16.408,7.777c-8.902,0-16.512-5.491-19.654-13.269
				c-3.41,2.146-7.434,3.407-11.761,3.407c-12.216,0-22.123-9.909-22.123-22.127c0-12.215,9.907-22.125,22.123-22.125
				c1.192,0,2.35,0.124,3.49,0.303c-0.006-0.195-0.029-0.381-0.029-0.577C38.904,42.079,48.745,32.233,60.89,32.233 M60.89,29.468
				c-12.813,0-23.384,9.79-24.629,22.279c-0.279-0.011-0.549-0.016-0.818-0.016c-13.722,0-24.889,11.164-24.889,24.89
				c0,13.725,11.167,24.89,24.889,24.89c3.651,0,7.239-0.807,10.528-2.352c4.208,7.509,12.11,12.216,20.887,12.216
				c6.045,0,11.772-2.25,16.163-6.271c3.575,3.975,8.642,6.271,14.11,6.271c7.673,0,14.548-4.688,17.505-11.555
				c2.517,1.114,5.244,1.693,8.038,1.693c10.996,0,19.939-8.943,19.939-19.935c0-10.993-8.943-19.936-19.939-19.936
				c-0.654,0-1.32,0.037-1.988,0.104c-3.302-10.382-13.07-17.664-24.163-17.664c-4.225,0-8.285,1.025-11.944,2.997
				C81.494,36.791,71.96,29.468,60.89,29.468L60.89,29.468z"/>
		</g>
		<g>
			<g>
				<path fill="#E9FBFF" enable-background="new    " d="M35.443,64.363c3.304,0,6.388,0.905,9.044,2.464
					c-0.835-1.974-1.308-4.126-1.378-6.388c-2.327-1.103-4.919-1.739-7.666-1.739c-9.896,0-17.919,8.024-17.919,17.921
					c0,0.967,0.098,1.907,0.244,2.83C19.128,70.899,26.513,64.363,35.443,64.363z"/>
				<path fill="#E9FBFF" enable-background="new    " d="M60.89,42.066c8.871,0,16.206,6.495,17.564,14.982
					c0.147-0.925,0.245-1.864,0.245-2.827c0-9.838-7.971-17.813-17.807-17.813c-9.838,0-17.809,7.976-17.809,17.813
					c0,0.963,0.098,1.902,0.245,2.827C44.685,48.562,52.02,42.066,60.89,42.066z"/>
				<path fill="#E9FBFF" enable-background="new    " d="M96.522,56.795c10.104,0,18.294,8.191,18.294,18.294
					c0,0.239-0.028,0.475-0.036,0.714c2.246-1.553,4.961-2.473,7.894-2.473c6.715,0,12.312,4.752,13.624,11.077
					c0.188-0.913,0.289-1.858,0.289-2.83c0-7.679-6.227-13.907-13.913-13.907c-2.933,0-5.647,0.917-7.894,2.471
					c0.009-0.235,0.036-0.471,0.036-0.711c0-10.105-8.191-18.295-18.294-18.295c-10.104,0-18.296,8.19-18.296,18.295
					c0,0.966,0.096,1.907,0.239,2.828C79.83,63.503,87.382,56.795,96.522,56.795z"/>
			</g>
		</g>
	</g>
	<g>
		
			<linearGradient id="SVGID_2_" gradientUnits="userSpaceOnUse" x1="-118.499" y1="34.4453" x2="-118.499" y2="60.1819" gradientTransform="matrix(0.9397 0.342 0.342 -0.9397 114.938 203.9278)">
			<stop  offset="0" style="stop-color:#E4EDF8"/>
			<stop  offset="0.1967" style="stop-color:#D9E8F3"/>
			<stop  offset="0.5435" style="stop-color:#BCDCEC"/>
			<stop  offset="0.9969" style="stop-color:#8BC8E1"/>
			<stop  offset="1" style="stop-color:#8AC8DF"/>
		</linearGradient>
		<path fill="url(#SVGID_2_)" d="M23.504,127.236c-1.199,3.295-4.844,4.995-8.142,3.796c-3.295-1.197-4.998-4.844-3.797-8.138
			c1.201-3.298,10.967-11.565,10.967-11.565S24.702,123.939,23.504,127.236z"/>
		<path fill="#E9FBFF" enable-background="new    " d="M17.739,127.595c-2.516-0.914-3.82-3.711-2.903-6.228
			c0.209-0.568,0.83-1.417,1.655-2.392c-1.767,1.821-3.175,3.479-3.521,4.428c-0.917,2.514,0.385,5.311,2.903,6.226
			c2.357,0.855,4.933-0.243,6.008-2.453C20.67,127.901,19.164,128.113,17.739,127.595z"/>
		<path fill="#8ABFE0" d="M15.109,131.733c-3.68-1.339-5.583-5.417-4.243-9.098c1.232-3.381,10.17-11.018,11.185-11.877l0.998-0.84
			l0.222,1.284c0.226,1.311,2.165,12.905,0.934,16.289C22.867,131.172,18.786,133.073,15.109,131.733z M22.014,112.766
			c-3.138,2.737-8.918,8.105-9.746,10.383c-1.059,2.904,0.446,6.13,3.35,7.185c2.903,1.056,6.126-0.449,7.183-3.351
			C23.63,124.706,22.656,116.877,22.014,112.766z"/>
	</g>
	<g>
		
			<linearGradient id="SVGID_3_" gradientUnits="userSpaceOnUse" x1="-84.2798" y1="20.2031" x2="-84.2798" y2="52.3754" gradientTransform="matrix(0.9397 0.342 0.342 -0.9397 114.938 203.9278)">
			<stop  offset="0" style="stop-color:#E4EDF8"/>
			<stop  offset="0.1967" style="stop-color:#D9E8F3"/>
			<stop  offset="0.5435" style="stop-color:#BCDCEC"/>
			<stop  offset="0.9969" style="stop-color:#8BC8E1"/>
			<stop  offset="1" style="stop-color:#8AC8DF"/>
		</linearGradient>
		<path fill="url(#SVGID_3_)" d="M52.823,151.374c-1.499,4.121-6.057,6.243-10.176,4.744c-4.121-1.496-6.244-6.06-4.743-10.176
			c1.499-4.121,13.708-14.453,13.708-14.453S54.325,147.253,52.823,151.374z"/>
		<path fill="#E9FBFF" enable-background="new    " d="M45.619,151.819c-3.149-1.147-4.774-4.638-3.629-7.783
			c0.262-0.721,1.035-1.775,2.071-2.99c-2.209,2.274-3.971,4.351-4.402,5.533c-1.145,3.147,0.484,6.638,3.631,7.782
			c2.944,1.071,6.164-0.303,7.508-3.063C49.281,152.203,47.4,152.466,45.619,151.819z"/>
		<path fill="#8ABFE0" d="M42.329,156.995c-4.597-1.675-6.975-6.774-5.302-11.373c1.539-4.233,12.715-13.773,13.985-14.85
			l1.244-1.055l0.278,1.609c0.284,1.638,2.708,16.129,1.168,20.365C52.026,156.288,46.926,158.666,42.329,156.995z M50.958,133.281
			c-3.917,3.423-11.143,10.133-12.179,12.984c-1.321,3.625,0.559,7.653,4.19,8.973c3.628,1.321,7.657-0.558,8.978-4.184
			C52.983,148.206,51.763,138.421,50.958,133.281z"/>
	</g>
	<g>
		
			<linearGradient id="SVGID_4_" gradientUnits="userSpaceOnUse" x1="-49.5317" y1="37.2266" x2="-49.5317" y2="66.1814" gradientTransform="matrix(0.9397 0.342 0.342 -0.9397 114.938 203.9278)">
			<stop  offset="0" style="stop-color:#E4EDF8"/>
			<stop  offset="0.1967" style="stop-color:#D9E8F3"/>
			<stop  offset="0.5435" style="stop-color:#BCDCEC"/>
			<stop  offset="0.9969" style="stop-color:#8BC8E1"/>
			<stop  offset="1" style="stop-color:#8AC8DF"/>
		</linearGradient>
		<path fill="url(#SVGID_4_)" d="M90.28,147.733c-1.35,3.708-5.447,5.623-9.156,4.272c-3.711-1.35-5.621-5.449-4.27-9.159
			c1.35-3.708,12.338-13.006,12.338-13.006S91.63,144.024,90.28,147.733z"/>
		<path fill="#E9FBFF" enable-background="new    " d="M83.796,148.136c-2.832-1.032-4.294-4.173-3.267-7.004
			c0.239-0.645,0.934-1.596,1.866-2.688c-1.989,2.044-3.572,3.913-3.961,4.978c-1.03,2.829,0.436,5.974,3.267,7.005
			c2.648,0.967,5.551-0.278,6.76-2.757C87.094,148.48,85.4,148.719,83.796,148.136z"/>
		<path fill="#8ABFE0" d="M80.837,152.795c-4.137-1.507-6.28-6.097-4.773-10.236c1.385-3.809,11.444-12.396,12.583-13.361
			l1.123-0.948l0.249,1.449c0.255,1.47,2.437,14.513,1.052,18.324C89.567,152.157,84.974,154.298,80.837,152.795z M88.605,131.453
			c-3.527,3.08-10.031,9.124-10.964,11.681c-1.188,3.266,0.503,6.894,3.77,8.081c3.266,1.188,6.892-0.499,8.083-3.769
			C90.425,144.886,89.326,136.08,88.605,131.453z"/>
	</g>
	<g>
		
			<linearGradient id="SVGID_5_" gradientUnits="userSpaceOnUse" x1="-19.5669" y1="70.4512" x2="-19.5669" y2="96.1878" gradientTransform="matrix(0.9397 0.342 0.342 -0.9397 114.938 203.9278)">
			<stop  offset="0" style="stop-color:#E4EDF8"/>
			<stop  offset="0.1967" style="stop-color:#D9E8F3"/>
			<stop  offset="0.5435" style="stop-color:#BCDCEC"/>
			<stop  offset="0.9969" style="stop-color:#8BC8E1"/>
			<stop  offset="1" style="stop-color:#8AC8DF"/>
		</linearGradient>
		<path fill="url(#SVGID_5_)" d="M128.785,127.236c-1.199,3.295-4.846,4.995-8.142,3.796c-3.297-1.197-4.997-4.844-3.797-8.138
			c1.199-3.298,10.967-11.565,10.967-11.565S129.984,123.939,128.785,127.236z"/>
		<path fill="#E9FBFF" enable-background="new    " d="M123.019,127.595c-2.515-0.914-3.82-3.711-2.905-6.228
			c0.21-0.568,0.833-1.417,1.658-2.392c-1.768,1.821-3.177,3.479-3.521,4.428c-0.918,2.514,0.387,5.311,2.903,6.226
			c2.355,0.855,4.932-0.243,6.009-2.453C125.95,127.901,124.446,128.113,123.019,127.595z"/>
		<path fill="#8ABFE0" d="M120.389,131.733c-3.68-1.339-5.582-5.417-4.244-9.098c1.236-3.381,10.174-11.018,11.189-11.877
			l0.996-0.84l0.222,1.284c0.227,1.311,2.164,12.905,0.938,16.289C128.146,131.172,124.065,133.073,120.389,131.733z
			 M127.292,112.766c-3.135,2.737-8.915,8.105-9.743,10.383c-1.059,2.904,0.444,6.13,3.352,7.185
			c2.903,1.056,6.127-0.449,7.183-3.351C128.911,124.706,127.938,116.877,127.292,112.766z"/>
	</g>
</g>
</svg>
