<?xml version="1.0" encoding="utf-8"?>
<!-- Generator: Adobe Illustrator 16.1.1, SVG Export Plug-In . SVG Version: 6.00 Build 0)  -->
<!DOCTYPE svg PUBLIC "-//W3C//DTD SVG 1.1//EN" "http://www.w3.org/Graphics/SVG/1.1/DTD/svg11.dtd">
<svg version="1.1" id="Layer_1" xmlns="http://www.w3.org/2000/svg" xmlns:xlink="http://www.w3.org/1999/xlink" x="0px" y="0px"
	 width="158.461px" height="157.595px" viewBox="0 0 158.461 157.595" enable-background="new 0 0 158.461 157.595"
	 xml:space="preserve">
<g>
	<g>
		<g>
			<g>
				<path fill="#128BC6" d="M60.619,27.393c-14.393,0-26.06,11.67-26.06,26.066c0,0.229,0.03,0.455,0.035,0.683
					c-1.351-0.211-2.728-0.354-4.137-0.354c-14.487,0-26.228,11.74-26.228,26.228c0,14.483,11.74,26.231,26.228,26.231
					c5.13,0,9.896-1.492,13.94-4.038c3.725,9.22,12.745,15.732,23.299,15.732c7.842,0,14.845-3.595,19.455-9.224
					c3.394,5.523,9.477,9.224,16.438,9.224c9.248,0,16.975-6.518,18.858-15.205c3.255,2.213,7.186,3.511,11.422,3.511
					c11.247,0,20.356-9.115,20.356-20.357c0-11.241-9.109-20.354-20.356-20.354c-1.645,0-3.236,0.218-4.767,0.587
					c-2.49-12.213-13.288-21.41-26.241-21.41c-6.176,0-11.85,2.117-16.379,5.628C84.943,37.42,73.961,27.393,60.619,27.393
					 M60.619,24.114c13.125,0,24.432,8.686,28.089,20.877c4.335-2.338,9.153-3.554,14.155-3.554c13.158,0,24.734,8.64,28.651,20.943
					c0.792-0.084,1.581-0.123,2.356-0.123c13.036,0,23.64,10.601,23.64,23.632c0,13.037-10.604,23.633-23.64,23.633
					c-3.31,0-6.549-0.686-9.529-1.999c-3.501,8.133-11.657,13.693-20.751,13.693c-6.487,0-12.491-2.721-16.73-7.432
					c-5.203,4.765-11.996,7.432-19.163,7.432c-10.399,0-19.77-5.579-24.757-14.481c-3.905,1.836-8.156,2.789-12.482,2.789
					c-16.272,0-29.507-13.238-29.507-29.508c0-16.271,13.234-29.507,29.507-29.507c0.315,0,0.638,0.006,0.965,0.017
					C32.898,35.718,45.435,24.114,60.619,24.114L60.619,24.114z"/>
				
					<linearGradient id="SVGID_1_" gradientUnits="userSpaceOnUse" x1="149.7803" y1="398.5483" x2="149.7803" y2="307.2771" gradientTransform="matrix(1 0 0 -1 -70.5518 426.1123)">
					<stop  offset="0" style="stop-color:#E4EDF8"/>
					<stop  offset="0.1967" style="stop-color:#D9E8F3"/>
					<stop  offset="0.5435" style="stop-color:#BCDCEC"/>
					<stop  offset="0.9969" style="stop-color:#8BC8E1"/>
					<stop  offset="1" style="stop-color:#8AC8DF"/>
				</linearGradient>
				<path fill="url(#SVGID_1_)" d="M133.871,62.258c-1.645,0-3.236,0.218-4.767,0.586c-2.49-12.214-13.288-21.407-26.241-21.407
					c-6.176,0-11.85,2.111-16.379,5.623c-1.541-12.923-12.523-22.948-25.865-22.948c-14.393,0-26.06,11.669-26.06,26.063
					c0,0.233,0.03,0.458,0.035,0.684c-1.351-0.212-2.728-0.354-4.137-0.354c-14.487,0-26.228,11.74-26.228,26.229
					c0,14.487,11.74,26.229,26.228,26.229c5.13,0,9.896-1.493,13.94-4.038c3.725,9.219,12.745,15.732,23.299,15.732
					c7.842,0,14.845-3.597,19.455-9.224c3.394,5.526,9.477,9.224,16.438,9.224c9.248,0,16.975-6.513,18.858-15.205
					c3.255,2.212,7.186,3.511,11.422,3.511c11.247,0,20.356-9.114,20.356-20.352C154.228,71.37,145.118,62.258,133.871,62.258z"/>
				<path fill="#8ABFE0" d="M60.619,24.114c-14.393,0-26.06,11.67-26.06,26.064c0,0.232,0.03,0.458,0.035,0.684
					c-1.351-0.213-2.728-0.354-4.137-0.354c-14.487,0-26.228,11.74-26.228,26.228c0,14.488,11.74,26.231,26.228,26.231
					c5.13,0,9.896-1.494,13.94-4.038c3.725,9.22,12.745,15.732,23.299,15.732c7.842,0,14.845-3.596,19.455-9.224
					c3.394,5.525,9.477,9.224,16.438,9.224c9.248,0,16.975-6.512,18.858-15.205c3.255,2.212,7.186,3.511,11.422,3.511
					c11.247,0,20.356-9.113,20.356-20.354c0-11.244-9.109-20.356-20.356-20.356c-1.645,0-3.236,0.217-4.767,0.586
					c-2.49-12.214-13.288-21.407-26.241-21.407c-6.176,0-11.85,2.112-16.379,5.623C84.943,34.139,73.961,24.114,60.619,24.114
					 M60.619,20.835c13.125,0,24.432,8.683,28.089,20.877c4.335-2.337,9.153-3.553,14.155-3.553c13.158,0,24.734,8.64,28.651,20.942
					c0.792-0.08,1.581-0.121,2.356-0.121c13.036,0,23.64,10.598,23.64,23.635c0,13.03-10.604,23.631-23.64,23.631
					c-3.31,0-6.549-0.686-9.529-2.003c-3.501,8.138-11.657,13.696-20.751,13.696c-6.487,0-12.491-2.715-16.73-7.433
					c-5.203,4.765-11.996,7.433-19.163,7.433c-10.399,0-19.77-5.579-24.757-14.483c-3.905,1.833-8.156,2.791-12.482,2.791
					c-16.272,0-29.507-13.238-29.507-29.51c0-16.268,13.234-29.507,29.507-29.507c0.315,0,0.638,0.006,0.965,0.018
					C32.898,32.442,45.435,20.835,60.619,20.835L60.619,20.835z"/>
			</g>
			<g>
				<g>
					<path fill="#E9FBFF" enable-background="new    " d="M30.458,62.199c3.915,0,7.572,1.077,10.721,2.923
						c-0.992-2.333-1.551-4.89-1.634-7.568c-2.76-1.31-5.831-2.062-9.087-2.062c-11.731,0-21.243,9.512-21.243,21.245
						c0,1.146,0.114,2.257,0.289,3.354C11.116,69.956,19.871,62.199,30.458,62.199z"/>
					<path fill="#E9FBFF" enable-background="new    " d="M60.619,35.776c10.521,0,19.212,7.695,20.823,17.758
						c0.178-1.096,0.293-2.211,0.293-3.356c0-11.662-9.452-21.111-21.116-21.111c-11.657,0-21.109,9.448-21.109,21.111
						c0,1.146,0.118,2.261,0.293,3.356C41.41,43.471,50.106,35.776,60.619,35.776z"/>
					<path fill="#E9FBFF" enable-background="new    " d="M102.863,53.232c11.979,0,21.693,9.708,21.693,21.688
						c0,0.286-0.033,0.563-0.04,0.846c2.658-1.839,5.874-2.934,9.354-2.934c7.958,0,14.601,5.639,16.147,13.134
						c0.226-1.084,0.35-2.205,0.35-3.353c0-9.11-7.385-16.491-16.497-16.491c-3.48,0-6.696,1.094-9.354,2.934
						c0.01-0.282,0.04-0.561,0.04-0.846c0-11.979-9.715-21.688-21.693-21.688S81.178,56.231,81.178,68.21
						c0,1.145,0.114,2.259,0.285,3.356C83.077,61.185,92.029,53.232,102.863,53.232z"/>
				</g>
			</g>
		</g>
		<g>
			<g>
				<path fill="#128BC6" d="M66.207,71.09c-10.079,0-18.248,8.165-18.248,18.243c0,0.164,0.021,0.32,0.026,0.479
					c-0.946-0.151-1.906-0.248-2.899-0.248c-10.137,0-18.36,8.223-18.36,18.363c0,10.14,8.224,18.356,18.36,18.356
					c3.594,0,6.934-1.044,9.764-2.83c2.607,6.458,8.922,11.016,16.313,11.016c5.484,0,10.386-2.518,13.612-6.455
					c2.378,3.867,6.632,6.455,11.501,6.455c6.484,0,11.889-4.562,13.2-10.644c2.288,1.551,5.035,2.457,8.004,2.457
					c7.869,0,14.25-6.379,14.25-14.248c0-7.868-6.381-14.247-14.25-14.247c-1.153,0-2.268,0.147-3.343,0.411
					c-1.737-8.552-9.3-14.987-18.358-14.987c-4.33,0-8.301,1.479-11.473,3.94C83.225,78.105,75.542,71.09,66.207,71.09
					 M66.207,68.792c9.184,0,17.099,6.079,19.659,14.612c3.036-1.635,6.403-2.487,9.912-2.487c9.207,0,17.31,6.048,20.05,14.661
					c0.557-0.055,1.104-0.085,1.651-0.085c9.128,0,16.546,7.419,16.546,16.541s-7.418,16.542-16.546,16.542
					c-2.317,0-4.583-0.477-6.671-1.4c-2.457,5.694-8.16,9.586-14.53,9.586c-4.536,0-8.74-1.903-11.707-5.203
					c-3.643,3.334-8.396,5.203-13.407,5.203c-7.285,0-13.844-3.907-17.335-10.14c-2.735,1.286-5.711,1.954-8.74,1.954
					c-11.389,0-20.652-9.267-20.652-20.652c0-11.395,9.264-20.661,20.652-20.661c0.227,0,0.448,0.006,0.681,0.015
					C46.801,76.914,55.571,68.792,66.207,68.792L66.207,68.792z"/>
				
					<linearGradient id="SVGID_2_" gradientUnits="userSpaceOnUse" x1="149.7803" y1="354.9058" x2="149.7803" y2="291.0187" gradientTransform="matrix(1 0 0 -1 -70.5518 426.1123)">
					<stop  offset="0" style="stop-color:#E4EDF8"/>
					<stop  offset="0.1967" style="stop-color:#D9E8F3"/>
					<stop  offset="0.5435" style="stop-color:#BCDCEC"/>
					<stop  offset="0.9969" style="stop-color:#8BC8E1"/>
					<stop  offset="1" style="stop-color:#8AC8DF"/>
				</linearGradient>
				<path fill="url(#SVGID_2_)" d="M117.479,95.495c-1.149,0-2.266,0.151-3.342,0.406c-1.738-8.549-9.299-14.98-18.359-14.98
					c-4.328,0-8.299,1.475-11.469,3.937c-1.081-9.049-8.765-16.064-18.103-16.064c-10.079,0-18.245,8.163-18.245,18.243
					c0,0.164,0.021,0.322,0.023,0.483c-0.943-0.151-1.906-0.252-2.896-0.252c-10.137,0-18.36,8.222-18.36,18.365
					c0,10.138,8.224,18.358,18.36,18.358c3.595,0,6.935-1.045,9.761-2.83c2.609,6.453,8.922,11.013,16.314,11.013
					c5.485,0,10.386-2.514,13.611-6.455c2.377,3.867,6.633,6.455,11.503,6.455c6.481,0,11.887-4.562,13.201-10.64
					c2.285,1.551,5.031,2.457,8,2.457c7.873,0,14.25-6.379,14.25-14.247C131.729,101.874,125.349,95.495,117.479,95.495z"/>
				<path fill="#8ABFE0" d="M66.207,68.792c-10.079,0-18.248,8.165-18.248,18.244c0,0.163,0.021,0.319,0.026,0.481
					c-0.946-0.151-1.906-0.251-2.899-0.251c-10.137,0-18.36,8.222-18.36,18.365c0,10.138,8.224,18.356,18.36,18.356
					c3.594,0,6.934-1.044,9.764-2.828c2.607,6.453,8.922,11.013,16.313,11.013c5.484,0,10.386-2.516,13.612-6.457
					c2.378,3.87,6.632,6.457,11.501,6.457c6.484,0,11.889-4.562,13.2-10.642c2.288,1.551,5.035,2.457,8.004,2.457
					c7.869,0,14.25-6.377,14.25-14.245c0-7.87-6.381-14.249-14.25-14.249c-1.153,0-2.268,0.151-3.343,0.406
					c-1.737-8.549-9.3-14.98-18.358-14.98c-4.33,0-8.301,1.475-11.473,3.937C83.225,75.809,75.542,68.792,66.207,68.792
					 M66.207,66.498c9.184,0,17.099,6.077,19.659,14.613c3.036-1.637,6.403-2.487,9.912-2.487c9.207,0,17.31,6.046,20.05,14.663
					c0.557-0.057,1.104-0.087,1.651-0.087c9.128,0,16.546,7.421,16.546,16.544c0,9.119-7.418,16.541-16.546,16.541
					c-2.317,0-4.583-0.479-6.671-1.403c-2.457,5.692-8.16,9.586-14.53,9.586c-4.536,0-8.74-1.903-11.707-5.203
					c-3.643,3.335-8.396,5.203-13.407,5.203c-7.285,0-13.844-3.902-17.335-10.14c-2.735,1.284-5.711,1.957-8.74,1.957
					c-11.389,0-20.652-9.267-20.652-20.654c0-11.394,9.264-20.657,20.652-20.657c0.227,0,0.448,0.003,0.681,0.014
					C46.801,74.619,55.571,66.498,66.207,66.498L66.207,66.498z"/>
			</g>
			<g>
				<g>
					<path fill="#E9FBFF" enable-background="new    " d="M45.086,95.449c2.745,0,5.303,0.757,7.506,2.049
						c-0.689-1.635-1.086-3.423-1.143-5.296c-1.932-0.92-4.082-1.45-6.365-1.45c-8.209,0-14.867,6.663-14.867,14.877
						c0,0.801,0.078,1.58,0.201,2.348C31.549,100.88,37.678,95.449,45.086,95.449z"/>
					<path fill="#E9FBFF" enable-background="new    " d="M66.207,76.95c7.361,0,13.448,5.391,14.574,12.434
						c0.121-0.764,0.202-1.545,0.202-2.348c0-8.163-6.614-14.779-14.776-14.779c-8.166,0-14.781,6.616-14.781,14.779
						c0,0.802,0.08,1.584,0.201,2.348C52.762,82.341,58.844,76.95,66.207,76.95z"/>
					<path fill="#E9FBFF" enable-background="new    " d="M95.778,89.174c8.381,0,15.175,6.797,15.175,15.182
						c0,0.198-0.021,0.396-0.027,0.592c1.863-1.291,4.115-2.056,6.552-2.056c5.572,0,10.221,3.947,11.305,9.197
						c0.158-0.76,0.238-1.544,0.238-2.348c0-6.375-5.165-11.543-11.543-11.543c-2.437,0-4.688,0.764-6.552,2.054
						c0.007-0.2,0.027-0.394,0.027-0.592c0-8.384-6.794-15.18-15.175-15.18c-8.388,0-15.185,6.795-15.185,15.18
						c0,0.802,0.077,1.583,0.198,2.348C81.923,94.743,88.189,89.174,95.778,89.174z"/>
				</g>
			</g>
		</g>
	</g>
</g>
</svg>
