<?xml version="1.0" encoding="utf-8"?>
<!-- Generator: Adobe Illustrator 16.1.1, SVG Export Plug-In . SVG Version: 6.00 Build 0)  -->
<!DOCTYPE svg PUBLIC "-//W3C//DTD SVG 1.1//EN" "http://www.w3.org/Graphics/SVG/1.1/DTD/svg11.dtd">
<svg version="1.1" id="Layer_1" xmlns="http://www.w3.org/2000/svg" xmlns:xlink="http://www.w3.org/1999/xlink" x="0px" y="0px"
	 width="158.461px" height="157.594px" viewBox="0 0 158.461 157.594" enable-background="new 0 0 158.461 157.594"
	 xml:space="preserve">
<g>
	<g>
		<g>
			<path fill="#128BC6" d="M61.477,8.426c-13.611,0-24.645,11.033-24.645,24.647c0,0.219,0.027,0.431,0.032,0.647
				c-1.275-0.203-2.572-0.34-3.909-0.34c-13.692,0-24.799,11.106-24.799,24.804s11.106,24.801,24.799,24.801
				c4.848,0,9.36-1.411,13.183-3.818c3.523,8.717,12.055,14.876,22.035,14.876c7.415,0,14.035-3.398,18.396-8.721
				c3.208,5.225,8.961,8.721,15.535,8.721c8.759,0,16.061-6.16,17.835-14.378c3.081,2.093,6.796,3.32,10.805,3.32
				c10.629,0,19.253-8.618,19.253-19.246c0-10.631-8.624-19.245-19.253-19.245c-1.554,0-3.061,0.203-4.509,0.555
				c-2.355-11.551-12.566-20.244-24.808-20.244c-5.845,0-11.208,1.997-15.488,5.318C84.476,17.907,74.091,8.426,61.477,8.426
				 M61.477,5.326c12.406,0,23.101,8.208,26.559,19.741c4.1-2.211,8.652-3.362,13.388-3.362c12.438,0,23.387,8.172,27.085,19.807
				c0.751-0.078,1.496-0.117,2.233-0.117c12.323,0,22.351,10.023,22.351,22.348c0,12.321-10.028,22.346-22.351,22.346
				c-3.135,0-6.191-0.649-9.015-1.896c-3.313,7.692-11.02,12.95-19.625,12.95c-6.126,0-11.807-2.568-15.815-7.03
				c-4.924,4.508-11.339,7.03-18.117,7.03c-9.841,0-18.691-5.275-23.41-13.695c-3.692,1.733-7.714,2.641-11.808,2.641
				c-15.38,0-27.896-12.52-27.896-27.903c0-15.387,12.516-27.9,27.896-27.9c0.306,0,0.608,0.006,0.922,0.018
				C35.264,16.299,47.117,5.326,61.477,5.326L61.477,5.326z"/>
			
				<linearGradient id="SVGID_1_" gradientUnits="userSpaceOnUse" x1="149.6084" y1="10.4199" x2="149.6084" y2="-75.8806" gradientTransform="matrix(1 0 0 -1 -70.5313 19.0039)">
				<stop  offset="0" style="stop-color:#E4EDF8"/>
				<stop  offset="0.1967" style="stop-color:#D9E8F3"/>
				<stop  offset="0.5435" style="stop-color:#BCDCEC"/>
				<stop  offset="0.9969" style="stop-color:#8BC8E1"/>
				<stop  offset="1" style="stop-color:#8AC8DF"/>
			</linearGradient>
			<path fill="url(#SVGID_1_)" d="M130.742,41.395c-1.556,0-3.063,0.206-4.511,0.554c-2.355-11.551-12.565-20.243-24.808-20.243
				c-5.844,0-11.206,1.998-15.487,5.321c-1.46-12.22-11.845-21.7-24.459-21.7c-13.611,0-24.645,11.032-24.645,24.646
				c0,0.22,0.027,0.433,0.032,0.646c-1.275-0.204-2.572-0.337-3.909-0.337c-13.692,0-24.799,11.104-24.799,24.801
				c0,13.699,11.106,24.804,24.799,24.804c4.848,0,9.36-1.414,13.183-3.821c3.523,8.718,12.055,14.875,22.035,14.875
				c7.415,0,14.035-3.397,18.396-8.718c3.208,5.225,8.961,8.718,15.535,8.718c8.759,0,16.061-6.159,17.835-14.374
				c3.081,2.093,6.796,3.32,10.805,3.32c10.629,0,19.253-8.618,19.253-19.25C149.997,50.009,141.371,41.395,130.742,41.395z"/>
			<path fill="#8ABFE0" d="M61.477,5.326c-13.611,0-24.645,11.032-24.645,24.646c0,0.22,0.027,0.433,0.032,0.646
				c-1.275-0.204-2.572-0.337-3.909-0.337c-13.692,0-24.799,11.104-24.799,24.801c0,13.699,11.106,24.804,24.799,24.804
				c4.848,0,9.36-1.414,13.183-3.821c3.523,8.718,12.055,14.875,22.035,14.875c7.415,0,14.035-3.397,18.396-8.718
				c3.208,5.225,8.961,8.718,15.535,8.718c8.759,0,16.061-6.159,17.835-14.374c3.081,2.093,6.796,3.32,10.805,3.32
				c10.629,0,19.253-8.618,19.253-19.25c0-10.627-8.624-19.245-19.253-19.245c-1.554,0-3.061,0.207-4.509,0.555
				c-2.355-11.551-12.566-20.243-24.808-20.243c-5.845,0-11.208,2-15.488,5.32C84.476,14.807,74.091,5.326,61.477,5.326
				 M61.477,2.227c12.406,0,23.101,8.211,26.559,19.741c4.1-2.211,8.652-3.362,13.388-3.362c12.438,0,23.387,8.172,27.085,19.809
				c0.751-0.081,1.496-0.119,2.233-0.119c12.323,0,22.351,10.023,22.351,22.347c0,12.322-10.028,22.347-22.351,22.347
				c-3.135,0-6.191-0.649-9.015-1.896c-3.313,7.695-11.02,12.95-19.625,12.95c-6.126,0-11.807-2.572-15.815-7.028
				c-4.924,4.505-11.339,7.028-18.117,7.028c-9.841,0-18.691-5.276-23.41-13.696c-3.692,1.734-7.714,2.642-11.808,2.642
				c-15.38,0-27.896-12.518-27.896-27.906c0-15.38,12.516-27.9,27.896-27.9c0.306,0,0.608,0.007,0.922,0.021
				C35.264,13.197,47.117,2.227,61.477,2.227L61.477,2.227z"/>
		</g>
		<g>
			<g>
				<path fill="#E9FBFF" enable-background="new    " d="M32.952,41.336c3.709,0,7.165,1.019,10.144,2.768
					c-0.939-2.207-1.472-4.629-1.55-7.159c-2.604-1.239-5.511-1.95-8.594-1.95c-11.094,0-20.081,8.996-20.081,20.088
					c0,1.083,0.105,2.137,0.271,3.173C14.666,48.673,22.945,41.336,32.952,41.336z"/>
				<path fill="#E9FBFF" enable-background="new    " d="M61.477,16.352c9.943,0,18.163,7.277,19.692,16.793
					c0.164-1.037,0.274-2.091,0.274-3.172c0-11.026-8.938-19.961-19.963-19.961c-11.028,0-19.965,8.935-19.965,19.961
					c0,1.081,0.109,2.135,0.28,3.172C43.313,23.629,51.537,16.352,61.477,16.352z"/>
				<path fill="#E9FBFF" enable-background="new    " d="M101.423,32.858c11.323,0,20.509,9.182,20.509,20.507
					c0,0.271-0.03,0.533-0.043,0.799c2.515-1.742,5.561-2.775,8.853-2.775c7.521,0,13.8,5.334,15.266,12.423
					c0.215-1.027,0.329-2.087,0.329-3.173c0-8.61-6.98-15.587-15.594-15.587c-3.292,0-6.339,1.029-8.852,2.771
					c0.013-0.266,0.042-0.53,0.042-0.801c0-11.327-9.187-20.507-20.509-20.507c-11.328,0-20.506,9.183-20.506,20.507
					c0,1.083,0.106,2.137,0.267,3.173C82.711,40.378,91.178,32.858,101.423,32.858z"/>
			</g>
		</g>
	</g>
	<g>
		<g>
			<path fill="#128BC6" d="M66.759,49.742c-9.532,0-17.252,7.723-17.252,17.251c0,0.154,0.019,0.304,0.019,0.455
				c-0.891-0.144-1.805-0.237-2.734-0.237c-9.587,0-17.362,7.777-17.362,17.365s7.774,17.359,17.362,17.359
				c3.397,0,6.551-0.987,9.229-2.675c2.463,6.106,8.433,10.416,15.419,10.416c5.191,0,9.829-2.375,12.88-6.105
				c2.246,3.658,6.273,6.105,10.875,6.105c6.126,0,11.236-4.31,12.486-10.064c2.155,1.467,4.76,2.326,7.562,2.326
				c7.442,0,13.473-6.032,13.473-13.474s-6.03-13.473-13.473-13.473c-1.089,0-2.142,0.142-3.16,0.387
				c-1.645-8.082-8.792-14.167-17.364-14.167c-4.088,0-7.844,1.399-10.841,3.721C82.853,56.378,75.586,49.742,66.759,49.742
				 M66.759,47.57c8.682,0,16.167,5.747,18.589,13.822c2.869-1.551,6.057-2.357,9.369-2.357c8.706,0,16.373,5.721,18.964,13.866
				c0.521-0.057,1.046-0.085,1.561-0.085c8.624,0,15.645,7.018,15.645,15.642c0,8.626-7.021,15.643-15.645,15.643
				c-2.198,0-4.333-0.453-6.308-1.326c-2.32,5.391-7.714,9.07-13.738,9.07c-4.288,0-8.267-1.801-11.067-4.921
				c-3.446,3.152-7.942,4.921-12.689,4.921c-6.885,0-13.083-3.693-16.384-9.588c-2.586,1.213-5.4,1.847-8.264,1.847
				c-10.769,0-19.527-8.762-19.527-19.531c0-10.767,8.758-19.531,19.524-19.531c0.211,0,0.425,0.004,0.643,0.014
				C48.405,55.253,56.702,47.57,66.759,47.57L66.759,47.57z"/>
			
				<linearGradient id="SVGID_2_" gradientUnits="userSpaceOnUse" x1="149.6035" y1="-30.8467" x2="149.6035" y2="-91.261" gradientTransform="matrix(1 0 0 -1 -70.5313 19.0039)">
				<stop  offset="0" style="stop-color:#E4EDF8"/>
				<stop  offset="0.1967" style="stop-color:#D9E8F3"/>
				<stop  offset="0.5435" style="stop-color:#BCDCEC"/>
				<stop  offset="0.9969" style="stop-color:#8BC8E1"/>
				<stop  offset="1" style="stop-color:#8AC8DF"/>
			</linearGradient>
			<path fill="url(#SVGID_2_)" d="M115.242,72.819c-1.089,0-2.145,0.145-3.161,0.387c-1.648-8.082-8.792-14.168-17.365-14.168
				c-4.089,0-7.842,1.397-10.84,3.725c-1.022-8.556-8.289-15.192-17.116-15.192c-9.532,0-17.252,7.726-17.252,17.255
				c0,0.152,0.019,0.299,0.019,0.453c-0.891-0.142-1.805-0.237-2.734-0.237c-9.587,0-17.362,7.775-17.362,17.363
				c0,9.589,7.774,17.362,17.362,17.362c3.397,0,6.551-0.99,9.229-2.673c2.463,6.102,8.433,10.412,15.419,10.412
				c5.191,0,9.829-2.379,12.88-6.105c2.246,3.658,6.273,6.105,10.875,6.105c6.126,0,11.236-4.314,12.486-10.064
				c2.155,1.467,4.76,2.325,7.562,2.325c7.442,0,13.473-6.032,13.473-13.475C128.714,78.852,122.683,72.819,115.242,72.819z"/>
			<path fill="#8ABFE0" d="M66.759,47.57c-9.532,0-17.252,7.726-17.252,17.255c0,0.152,0.019,0.299,0.019,0.453
				c-0.891-0.142-1.805-0.237-2.734-0.237c-9.587,0-17.362,7.775-17.362,17.363c0,9.589,7.774,17.362,17.362,17.362
				c3.397,0,6.551-0.99,9.229-2.673c2.463,6.102,8.433,10.412,15.419,10.412c5.191,0,9.829-2.379,12.88-6.105
				c2.246,3.658,6.273,6.105,10.875,6.105c6.126,0,11.236-4.314,12.486-10.064c2.155,1.467,4.76,2.325,7.562,2.325
				c7.442,0,13.473-6.032,13.473-13.475c0-7.44-6.03-13.473-13.473-13.473c-1.089,0-2.142,0.145-3.16,0.391
				c-1.645-8.084-8.792-14.172-17.364-14.172c-4.088,0-7.844,1.397-10.841,3.728C82.853,54.207,75.586,47.57,66.759,47.57
				 M66.759,45.402c8.682,0,16.167,5.745,18.589,13.817c2.869-1.55,6.057-2.353,9.369-2.353c8.706,0,16.373,5.717,18.964,13.863
				c0.521-0.053,1.046-0.084,1.561-0.084c8.624,0,15.645,7.017,15.645,15.642c0,8.627-7.021,15.644-15.645,15.644
				c-2.198,0-4.333-0.452-6.308-1.324c-2.32,5.382-7.714,9.063-13.738,9.063c-4.288,0-8.267-1.799-11.067-4.918
				c-3.446,3.152-7.942,4.918-12.689,4.918c-6.885,0-13.083-3.691-16.384-9.586c-2.586,1.214-5.4,1.851-8.264,1.851
				c-10.769,0-19.527-8.762-19.527-19.533c0-10.771,8.759-19.531,19.527-19.531c0.209,0,0.424,0.005,0.64,0.012
				C48.405,53.081,56.702,45.402,66.759,45.402L66.759,45.402z"/>
		</g>
		<g>
			<g>
				<path fill="#E9FBFF" enable-background="new    " d="M46.789,72.78c2.591,0,5.013,0.711,7.099,1.937
					c-0.655-1.547-1.024-3.239-1.078-5.011c-1.829-0.866-3.862-1.366-6.018-1.366c-7.765,0-14.062,6.298-14.062,14.064
					c0,0.758,0.079,1.495,0.196,2.219C33.989,77.915,39.782,72.78,46.789,72.78z"/>
				<path fill="#E9FBFF" enable-background="new    " d="M66.759,55.289c6.957,0,12.718,5.094,13.782,11.756
					c0.113-0.724,0.191-1.463,0.191-2.22c0-7.719-6.259-13.978-13.974-13.978c-7.722,0-13.978,6.257-13.978,13.978
					c0,0.757,0.081,1.496,0.197,2.22C54.043,60.383,59.794,55.289,66.759,55.289z"/>
				<path fill="#E9FBFF" enable-background="new    " d="M94.715,66.842c7.933,0,14.355,6.431,14.355,14.358
					c0,0.188-0.019,0.371-0.032,0.558c1.762-1.219,3.896-1.938,6.202-1.938c5.266,0,9.659,3.729,10.686,8.692
					c0.147-0.718,0.224-1.461,0.224-2.22c0-6.026-4.888-10.914-10.909-10.914c-2.307,0-4.44,0.722-6.202,1.942
					c0.014-0.189,0.032-0.371,0.032-0.562c0-7.928-6.423-14.354-14.355-14.354c-7.927,0-14.357,6.427-14.357,14.354
					c0,0.758,0.08,1.495,0.194,2.221C81.619,72.107,87.545,66.842,94.715,66.842z"/>
			</g>
		</g>
	</g>
</g>
<g>
	
		<linearGradient id="SVGID_3_" gradientUnits="userSpaceOnUse" x1="148.9731" y1="67.5029" x2="148.9731" y2="96.3558" gradientTransform="matrix(0.9397 0.342 0.342 -0.9397 -152.6315 138.1511)">
		<stop  offset="0" style="stop-color:#E4EDF8"/>
		<stop  offset="0.1967" style="stop-color:#D9E8F3"/>
		<stop  offset="0.5435" style="stop-color:#BCDCEC"/>
		<stop  offset="0.9969" style="stop-color:#8BC8E1"/>
		<stop  offset="1" style="stop-color:#8AC8DF"/>
	</linearGradient>
	<path fill="url(#SVGID_3_)" d="M19.571,121.41c-1.344,3.697-5.431,5.603-9.125,4.258c-3.693-1.345-5.603-5.433-4.258-9.126
		c1.346-3.693,12.292-12.964,12.292-12.964S20.914,117.717,19.571,121.41z"/>
	<path fill="#8ABFE0" d="M20.359,121.699c1.381-3.796-0.794-16.792-1.05-18.262l-0.248-1.443l-1.12,0.948
		c-1.136,0.958-11.158,9.52-12.538,13.312c-1.501,4.127,0.634,8.695,4.759,10.198C14.279,127.954,18.856,125.819,20.359,121.699z
		 M18.783,121.125c-1.187,3.255-4.796,4.94-8.052,3.757c-3.252-1.188-4.943-4.797-3.756-8.054
		c0.928-2.552,7.406-8.571,10.923-11.643C18.621,109.798,19.709,118.573,18.783,121.125z"/>
	<path fill="#E9FBFF" enable-background="new    " d="M13.11,121.814c-2.822-1.03-4.279-4.156-3.256-6.984
		c0.235-0.64,0.933-1.588,1.858-2.677c-1.985,2.04-3.562,3.9-3.951,4.96c-1.028,2.821,0.432,5.954,3.253,6.98
		c2.647,0.964,5.534-0.275,6.74-2.749C16.391,122.158,14.707,122.395,13.11,121.814z"/>
</g>
<g>
	
		<linearGradient id="SVGID_4_" gradientUnits="userSpaceOnUse" x1="187.3325" y1="51.543" x2="187.3325" y2="87.6046" gradientTransform="matrix(0.9397 0.342 0.342 -0.9397 -152.6315 138.1511)">
		<stop  offset="0" style="stop-color:#E4EDF8"/>
		<stop  offset="0.1967" style="stop-color:#D9E8F3"/>
		<stop  offset="0.5435" style="stop-color:#BCDCEC"/>
		<stop  offset="0.9969" style="stop-color:#8BC8E1"/>
		<stop  offset="1" style="stop-color:#8AC8DF"/>
	</linearGradient>
	<path fill="url(#SVGID_4_)" d="M52.437,148.466c-1.685,4.622-6.786,7.001-11.405,5.317c-4.62-1.679-7-6.786-5.318-11.405
		c1.679-4.619,15.369-16.197,15.369-16.197S54.124,143.848,52.437,148.466z"/>
	<path fill="#8ABFE0" d="M53.417,148.823c1.726-4.742-0.99-20.986-1.308-22.824l-0.309-1.804l-1.397,1.182
		c-1.425,1.203-13.951,11.9-15.677,16.644c-1.872,5.153,0.793,10.871,5.944,12.748C45.827,156.641,51.546,153.977,53.417,148.823z
		 M51.45,148.109c-1.476,4.066-5.994,6.173-10.061,4.694c-4.071-1.483-6.179-5.993-4.695-10.064
		c1.164-3.191,9.258-10.717,13.657-14.551C51.243,133.948,52.615,144.92,51.45,148.109z"/>
	<path fill="#E9FBFF" enable-background="new    " d="M44.36,148.968c-3.529-1.285-5.352-5.195-4.069-8.725
		c0.289-0.801,1.162-1.991,2.319-3.35c-2.478,2.549-4.451,4.874-4.938,6.2c-1.282,3.529,0.547,7.439,4.071,8.725
		c3.3,1.201,6.914-0.341,8.423-3.438C48.467,149.398,46.36,149.696,44.36,148.968z"/>
</g>
<g>
	
		<linearGradient id="SVGID_5_" gradientUnits="userSpaceOnUse" x1="226.2861" y1="70.624" x2="226.2861" y2="103.0805" gradientTransform="matrix(0.9397 0.342 0.342 -0.9397 -152.6315 138.1511)">
		<stop  offset="0" style="stop-color:#E4EDF8"/>
		<stop  offset="0.1967" style="stop-color:#D9E8F3"/>
		<stop  offset="0.5435" style="stop-color:#BCDCEC"/>
		<stop  offset="0.9969" style="stop-color:#8BC8E1"/>
		<stop  offset="1" style="stop-color:#8AC8DF"/>
	</linearGradient>
	<path fill="url(#SVGID_5_)" d="M94.431,144.389c-1.516,4.156-6.114,6.302-10.271,4.786c-4.158-1.513-6.298-6.108-4.789-10.265
		c1.513-4.159,13.837-14.58,13.837-14.58S95.937,140.233,94.431,144.389z"/>
	<path fill="#8ABFE0" d="M95.312,144.71c1.554-4.271-0.894-18.891-1.179-20.541l-0.278-1.624l-1.26,1.063
		c-1.276,1.082-12.555,10.71-14.108,14.978c-1.69,4.642,0.715,9.788,5.352,11.476C88.478,151.75,93.625,149.349,95.312,144.71z
		 M93.542,144.067c-1.334,3.657-5.396,5.557-9.062,4.226c-3.655-1.335-5.56-5.399-4.219-9.061c1.04-2.871,8.332-9.644,12.284-13.095
		C93.358,131.323,94.585,141.197,93.542,144.067z"/>
	<path fill="#E9FBFF" enable-background="new    " d="M87.158,144.842c-3.172-1.154-4.814-4.682-3.663-7.853
		c0.27-0.723,1.046-1.789,2.09-3.016c-2.227,2.293-4.002,4.39-4.438,5.58c-1.157,3.176,0.481,6.699,3.66,7.854
		c2.969,1.079,6.22-0.309,7.576-3.091C90.851,145.229,88.957,145.495,87.158,144.842z"/>
</g>
<g>
	
		<linearGradient id="SVGID_6_" gradientUnits="userSpaceOnUse" x1="259.8721" y1="107.8633" x2="259.8721" y2="136.7181" gradientTransform="matrix(0.9397 0.342 0.342 -0.9397 -152.6315 138.1511)">
		<stop  offset="0" style="stop-color:#E4EDF8"/>
		<stop  offset="0.1967" style="stop-color:#D9E8F3"/>
		<stop  offset="0.5435" style="stop-color:#BCDCEC"/>
		<stop  offset="0.9969" style="stop-color:#8BC8E1"/>
		<stop  offset="1" style="stop-color:#8AC8DF"/>
	</linearGradient>
	<path fill="url(#SVGID_6_)" d="M137.584,121.41c-1.343,3.697-5.425,5.603-9.125,4.258c-3.693-1.345-5.601-5.433-4.255-9.126
		c1.349-3.693,12.296-12.964,12.296-12.964S138.931,117.717,137.584,121.41z"/>
	<path fill="#8ABFE0" d="M138.372,121.699c1.38-3.796-0.793-16.792-1.047-18.262l-0.247-1.443l-1.113,0.948
		c-1.139,0.958-11.161,9.52-12.541,13.312c-1.504,4.127,0.629,8.695,4.753,10.198C132.3,127.954,136.869,125.819,138.372,121.699z
		 M136.796,121.125c-1.181,3.255-4.796,4.94-8.047,3.757c-3.257-1.188-4.94-4.797-3.758-8.054
		c0.931-2.552,7.408-8.571,10.919-11.643C136.633,109.798,137.731,118.573,136.796,121.125z"/>
	<path fill="#E9FBFF" enable-background="new    " d="M131.125,121.814c-2.82-1.03-4.28-4.156-3.252-6.984
		c0.229-0.64,0.928-1.588,1.852-2.677c-1.979,2.04-3.56,3.9-3.939,4.96c-1.031,2.821,0.429,5.954,3.252,6.98
		c2.639,0.964,5.525-0.275,6.732-2.749C134.413,122.158,132.726,122.395,131.125,121.814z"/>
</g>
<rect id="_x3C_Slice_x3E__5_" y="-1.76" fill="none" width="158.461" height="158.461"/>
</svg>
